<?xml version="1.0" encoding="utf-8" standalone="no"?>
<!DOCTYPE svg PUBLIC "-//W3C//DTD SVG 1.1//EN"
  "http://www.w3.org/Graphics/SVG/1.1/DTD/svg11.dtd">
<svg xmlns:xlink="http://www.w3.org/1999/xlink" width="576pt" height="288pt" viewBox="0 0 576 288" xmlns="http://www.w3.org/2000/svg" version="1.1">
 <metadata>
  <rdf:RDF xmlns:dc="http://purl.org/dc/elements/1.1/" xmlns:cc="http://creativecommons.org/ns#" xmlns:rdf="http://www.w3.org/1999/02/22-rdf-syntax-ns#">
   <cc:Work>
    <dc:type rdf:resource="http://purl.org/dc/dcmitype/StillImage"/>
    <dc:date>2026-02-10T23:30:09.905108</dc:date>
    <dc:format>image/svg+xml</dc:format>
    <dc:creator>
     <cc:Agent>
      <dc:title>Matplotlib v3.10.8, https://matplotlib.org/</dc:title>
     </cc:Agent>
    </dc:creator>
   </cc:Work>
  </rdf:RDF>
 </metadata>
 <defs>
  <style type="text/css">*{stroke-linejoin: round; stroke-linecap: butt}</style>
 </defs>
 <g id="figure_1">
  <g id="patch_1">
   <path d="M 0 288 
L 576 288 
L 576 0 
L 0 0 
z
" style="fill: #ffffff"/>
  </g>
  <g id="axes_1">
   <g id="patch_2">
    <path d="M 49.16 246.04 
L 565.2 246.04 
L 565.2 29.04 
L 49.16 29.04 
z
" style="fill: #ffffff"/>
   </g>
   <g id="matplotlib.axis_1">
    <g id="xtick_1">
     <g id="line2d_1">
      <path d="M 72.616364 246.04 
L 72.616364 29.04 
" clip-path="url(#p71b288f8b5)" style="fill: none; stroke: #b0b0b0; stroke-opacity: 0.3; stroke-width: 0.8; stroke-linecap: square"/>
     </g>
     <g id="line2d_2">
      <defs>
       <path id="mc700e4d48a" d="M 0 0 
L 0 3.5 
" style="stroke: #000000; stroke-width: 0.8"/>
      </defs>
      <g>
       <use xlink:href="#mc700e4d48a" x="72.616364" y="246.04" style="stroke: #000000; stroke-width: 0.8"/>
      </g>
     </g>
     <g id="text_1">
      <!-- −3000 -->
      <g transform="translate(55.70152 260.638438) scale(0.1 -0.1)">
       <defs>
        <path id="DejaVuSans-2212" d="M 678 2272 
L 4684 2272 
L 4684 1741 
L 678 1741 
L 678 2272 
z
" transform="scale(0.015625)"/>
        <path id="DejaVuSans-33" d="M 2597 2516 
Q 3050 2419 3304 2112 
Q 3559 1806 3559 1356 
Q 3559 666 3084 287 
Q 2609 -91 1734 -91 
Q 1441 -91 1130 -33 
Q 819 25 488 141 
L 488 750 
Q 750 597 1062 519 
Q 1375 441 1716 441 
Q 2309 441 2620 675 
Q 2931 909 2931 1356 
Q 2931 1769 2642 2001 
Q 2353 2234 1838 2234 
L 1294 2234 
L 1294 2753 
L 1863 2753 
Q 2328 2753 2575 2939 
Q 2822 3125 2822 3475 
Q 2822 3834 2567 4026 
Q 2313 4219 1838 4219 
Q 1578 4219 1281 4162 
Q 984 4106 628 3988 
L 628 4550 
Q 988 4650 1302 4700 
Q 1616 4750 1894 4750 
Q 2613 4750 3031 4423 
Q 3450 4097 3450 3541 
Q 3450 3153 3228 2886 
Q 3006 2619 2597 2516 
z
" transform="scale(0.015625)"/>
        <path id="DejaVuSans-30" d="M 2034 4250 
Q 1547 4250 1301 3770 
Q 1056 3291 1056 2328 
Q 1056 1369 1301 889 
Q 1547 409 2034 409 
Q 2525 409 2770 889 
Q 3016 1369 3016 2328 
Q 3016 3291 2770 3770 
Q 2525 4250 2034 4250 
z
M 2034 4750 
Q 2819 4750 3233 4129 
Q 3647 3509 3647 2328 
Q 3647 1150 3233 529 
Q 2819 -91 2034 -91 
Q 1250 -91 836 529 
Q 422 1150 422 2328 
Q 422 3509 836 4129 
Q 1250 4750 2034 4750 
z
" transform="scale(0.015625)"/>
       </defs>
       <use xlink:href="#DejaVuSans-2212"/>
       <use xlink:href="#DejaVuSans-33" transform="translate(83.789062 0)"/>
       <use xlink:href="#DejaVuSans-30" transform="translate(147.412109 0)"/>
       <use xlink:href="#DejaVuSans-30" transform="translate(211.035156 0)"/>
       <use xlink:href="#DejaVuSans-30" transform="translate(274.658203 0)"/>
      </g>
     </g>
    </g>
    <g id="xtick_2">
     <g id="line2d_3">
      <path d="M 150.804242 246.04 
L 150.804242 29.04 
" clip-path="url(#p71b288f8b5)" style="fill: none; stroke: #b0b0b0; stroke-opacity: 0.3; stroke-width: 0.8; stroke-linecap: square"/>
     </g>
     <g id="line2d_4">
      <g>
       <use xlink:href="#mc700e4d48a" x="150.804242" y="246.04" style="stroke: #000000; stroke-width: 0.8"/>
      </g>
     </g>
     <g id="text_2">
      <!-- −2000 -->
      <g transform="translate(133.889399 260.638438) scale(0.1 -0.1)">
       <defs>
        <path id="DejaVuSans-32" d="M 1228 531 
L 3431 531 
L 3431 0 
L 469 0 
L 469 531 
Q 828 903 1448 1529 
Q 2069 2156 2228 2338 
Q 2531 2678 2651 2914 
Q 2772 3150 2772 3378 
Q 2772 3750 2511 3984 
Q 2250 4219 1831 4219 
Q 1534 4219 1204 4116 
Q 875 4013 500 3803 
L 500 4441 
Q 881 4594 1212 4672 
Q 1544 4750 1819 4750 
Q 2544 4750 2975 4387 
Q 3406 4025 3406 3419 
Q 3406 3131 3298 2873 
Q 3191 2616 2906 2266 
Q 2828 2175 2409 1742 
Q 1991 1309 1228 531 
z
" transform="scale(0.015625)"/>
       </defs>
       <use xlink:href="#DejaVuSans-2212"/>
       <use xlink:href="#DejaVuSans-32" transform="translate(83.789062 0)"/>
       <use xlink:href="#DejaVuSans-30" transform="translate(147.412109 0)"/>
       <use xlink:href="#DejaVuSans-30" transform="translate(211.035156 0)"/>
       <use xlink:href="#DejaVuSans-30" transform="translate(274.658203 0)"/>
      </g>
     </g>
    </g>
    <g id="xtick_3">
     <g id="line2d_5">
      <path d="M 228.992121 246.04 
L 228.992121 29.04 
" clip-path="url(#p71b288f8b5)" style="fill: none; stroke: #b0b0b0; stroke-opacity: 0.3; stroke-width: 0.8; stroke-linecap: square"/>
     </g>
     <g id="line2d_6">
      <g>
       <use xlink:href="#mc700e4d48a" x="228.992121" y="246.04" style="stroke: #000000; stroke-width: 0.8"/>
      </g>
     </g>
     <g id="text_3">
      <!-- −1000 -->
      <g transform="translate(212.077277 260.638438) scale(0.1 -0.1)">
       <defs>
        <path id="DejaVuSans-31" d="M 794 531 
L 1825 531 
L 1825 4091 
L 703 3866 
L 703 4441 
L 1819 4666 
L 2450 4666 
L 2450 531 
L 3481 531 
L 3481 0 
L 794 0 
L 794 531 
z
" transform="scale(0.015625)"/>
       </defs>
       <use xlink:href="#DejaVuSans-2212"/>
       <use xlink:href="#DejaVuSans-31" transform="translate(83.789062 0)"/>
       <use xlink:href="#DejaVuSans-30" transform="translate(147.412109 0)"/>
       <use xlink:href="#DejaVuSans-30" transform="translate(211.035156 0)"/>
       <use xlink:href="#DejaVuSans-30" transform="translate(274.658203 0)"/>
      </g>
     </g>
    </g>
    <g id="xtick_4">
     <g id="line2d_7">
      <path d="M 307.18 246.04 
L 307.18 29.04 
" clip-path="url(#p71b288f8b5)" style="fill: none; stroke: #b0b0b0; stroke-opacity: 0.3; stroke-width: 0.8; stroke-linecap: square"/>
     </g>
     <g id="line2d_8">
      <g>
       <use xlink:href="#mc700e4d48a" x="307.18" y="246.04" style="stroke: #000000; stroke-width: 0.8"/>
      </g>
     </g>
     <g id="text_4">
      <!-- 0 -->
      <g transform="translate(303.99875 260.638438) scale(0.1 -0.1)">
       <use xlink:href="#DejaVuSans-30"/>
      </g>
     </g>
    </g>
    <g id="xtick_5">
     <g id="line2d_9">
      <path d="M 385.367879 246.04 
L 385.367879 29.04 
" clip-path="url(#p71b288f8b5)" style="fill: none; stroke: #b0b0b0; stroke-opacity: 0.3; stroke-width: 0.8; stroke-linecap: square"/>
     </g>
     <g id="line2d_10">
      <g>
       <use xlink:href="#mc700e4d48a" x="385.367879" y="246.04" style="stroke: #000000; stroke-width: 0.8"/>
      </g>
     </g>
     <g id="text_5">
      <!-- 1000 -->
      <g transform="translate(372.642879 260.638438) scale(0.1 -0.1)">
       <use xlink:href="#DejaVuSans-31"/>
       <use xlink:href="#DejaVuSans-30" transform="translate(63.623047 0)"/>
       <use xlink:href="#DejaVuSans-30" transform="translate(127.246094 0)"/>
       <use xlink:href="#DejaVuSans-30" transform="translate(190.869141 0)"/>
      </g>
     </g>
    </g>
    <g id="xtick_6">
     <g id="line2d_11">
      <path d="M 463.555758 246.04 
L 463.555758 29.04 
" clip-path="url(#p71b288f8b5)" style="fill: none; stroke: #b0b0b0; stroke-opacity: 0.3; stroke-width: 0.8; stroke-linecap: square"/>
     </g>
     <g id="line2d_12">
      <g>
       <use xlink:href="#mc700e4d48a" x="463.555758" y="246.04" style="stroke: #000000; stroke-width: 0.8"/>
      </g>
     </g>
     <g id="text_6">
      <!-- 2000 -->
      <g transform="translate(450.830758 260.638438) scale(0.1 -0.1)">
       <use xlink:href="#DejaVuSans-32"/>
       <use xlink:href="#DejaVuSans-30" transform="translate(63.623047 0)"/>
       <use xlink:href="#DejaVuSans-30" transform="translate(127.246094 0)"/>
       <use xlink:href="#DejaVuSans-30" transform="translate(190.869141 0)"/>
      </g>
     </g>
    </g>
    <g id="xtick_7">
     <g id="line2d_13">
      <path d="M 541.743636 246.04 
L 541.743636 29.04 
" clip-path="url(#p71b288f8b5)" style="fill: none; stroke: #b0b0b0; stroke-opacity: 0.3; stroke-width: 0.8; stroke-linecap: square"/>
     </g>
     <g id="line2d_14">
      <g>
       <use xlink:href="#mc700e4d48a" x="541.743636" y="246.04" style="stroke: #000000; stroke-width: 0.8"/>
      </g>
     </g>
     <g id="text_7">
      <!-- 3000 -->
      <g transform="translate(529.018636 260.638438) scale(0.1 -0.1)">
       <use xlink:href="#DejaVuSans-33"/>
       <use xlink:href="#DejaVuSans-30" transform="translate(63.623047 0)"/>
       <use xlink:href="#DejaVuSans-30" transform="translate(127.246094 0)"/>
       <use xlink:href="#DejaVuSans-30" transform="translate(190.869141 0)"/>
      </g>
     </g>
    </g>
    <g id="text_8">
     <!-- $n$ -->
     <g transform="translate(303.98 274.316562) scale(0.1 -0.1)">
      <defs>
       <path id="DejaVuSans-Oblique-6e" d="M 3566 2113 
L 3156 0 
L 2578 0 
L 2988 2091 
Q 3016 2238 3031 2350 
Q 3047 2463 3047 2528 
Q 3047 2791 2881 2937 
Q 2716 3084 2419 3084 
Q 1956 3084 1622 2776 
Q 1288 2469 1184 1941 
L 800 0 
L 225 0 
L 903 3500 
L 1478 3500 
L 1363 2950 
Q 1603 3253 1940 3418 
Q 2278 3584 2650 3584 
Q 3113 3584 3367 3334 
Q 3622 3084 3622 2631 
Q 3622 2519 3608 2391 
Q 3594 2263 3566 2113 
z
" transform="scale(0.015625)"/>
      </defs>
      <use xlink:href="#DejaVuSans-Oblique-6e"/>
     </g>
    </g>
   </g>
   <g id="matplotlib.axis_2">
    <g id="ytick_1">
     <g id="line2d_15">
      <path d="M 49.16 219.763904 
L 565.2 219.763904 
" clip-path="url(#p71b288f8b5)" style="fill: none; stroke: #b0b0b0; stroke-opacity: 0.3; stroke-width: 0.8; stroke-linecap: square"/>
     </g>
     <g id="line2d_16">
      <defs>
       <path id="m1d4c8b316c" d="M 0 0 
L -3.5 0 
" style="stroke: #000000; stroke-width: 0.8"/>
      </defs>
      <g>
       <use xlink:href="#m1d4c8b316c" x="49.16" y="219.763904" style="stroke: #000000; stroke-width: 0.8"/>
      </g>
     </g>
     <g id="text_9">
      <!-- 0.0 -->
      <g transform="translate(26.256875 223.563123) scale(0.1 -0.1)">
       <defs>
        <path id="DejaVuSans-2e" d="M 684 794 
L 1344 794 
L 1344 0 
L 684 0 
L 684 794 
z
" transform="scale(0.015625)"/>
       </defs>
       <use xlink:href="#DejaVuSans-30"/>
       <use xlink:href="#DejaVuSans-2e" transform="translate(63.623047 0)"/>
       <use xlink:href="#DejaVuSans-30" transform="translate(95.410156 0)"/>
      </g>
     </g>
    </g>
    <g id="ytick_2">
     <g id="line2d_17">
      <path d="M 49.16 183.584395 
L 565.2 183.584395 
" clip-path="url(#p71b288f8b5)" style="fill: none; stroke: #b0b0b0; stroke-opacity: 0.3; stroke-width: 0.8; stroke-linecap: square"/>
     </g>
     <g id="line2d_18">
      <g>
       <use xlink:href="#m1d4c8b316c" x="49.16" y="183.584395" style="stroke: #000000; stroke-width: 0.8"/>
      </g>
     </g>
     <g id="text_10">
      <!-- 0.2 -->
      <g transform="translate(26.256875 187.383614) scale(0.1 -0.1)">
       <use xlink:href="#DejaVuSans-30"/>
       <use xlink:href="#DejaVuSans-2e" transform="translate(63.623047 0)"/>
       <use xlink:href="#DejaVuSans-32" transform="translate(95.410156 0)"/>
      </g>
     </g>
    </g>
    <g id="ytick_3">
     <g id="line2d_19">
      <path d="M 49.16 147.404886 
L 565.2 147.404886 
" clip-path="url(#p71b288f8b5)" style="fill: none; stroke: #b0b0b0; stroke-opacity: 0.3; stroke-width: 0.8; stroke-linecap: square"/>
     </g>
     <g id="line2d_20">
      <g>
       <use xlink:href="#m1d4c8b316c" x="49.16" y="147.404886" style="stroke: #000000; stroke-width: 0.8"/>
      </g>
     </g>
     <g id="text_11">
      <!-- 0.4 -->
      <g transform="translate(26.256875 151.204105) scale(0.1 -0.1)">
       <defs>
        <path id="DejaVuSans-34" d="M 2419 4116 
L 825 1625 
L 2419 1625 
L 2419 4116 
z
M 2253 4666 
L 3047 4666 
L 3047 1625 
L 3713 1625 
L 3713 1100 
L 3047 1100 
L 3047 0 
L 2419 0 
L 2419 1100 
L 313 1100 
L 313 1709 
L 2253 4666 
z
" transform="scale(0.015625)"/>
       </defs>
       <use xlink:href="#DejaVuSans-30"/>
       <use xlink:href="#DejaVuSans-2e" transform="translate(63.623047 0)"/>
       <use xlink:href="#DejaVuSans-34" transform="translate(95.410156 0)"/>
      </g>
     </g>
    </g>
    <g id="ytick_4">
     <g id="line2d_21">
      <path d="M 49.16 111.225378 
L 565.2 111.225378 
" clip-path="url(#p71b288f8b5)" style="fill: none; stroke: #b0b0b0; stroke-opacity: 0.3; stroke-width: 0.8; stroke-linecap: square"/>
     </g>
     <g id="line2d_22">
      <g>
       <use xlink:href="#m1d4c8b316c" x="49.16" y="111.225378" style="stroke: #000000; stroke-width: 0.8"/>
      </g>
     </g>
     <g id="text_12">
      <!-- 0.6 -->
      <g transform="translate(26.256875 115.024596) scale(0.1 -0.1)">
       <defs>
        <path id="DejaVuSans-36" d="M 2113 2584 
Q 1688 2584 1439 2293 
Q 1191 2003 1191 1497 
Q 1191 994 1439 701 
Q 1688 409 2113 409 
Q 2538 409 2786 701 
Q 3034 994 3034 1497 
Q 3034 2003 2786 2293 
Q 2538 2584 2113 2584 
z
M 3366 4563 
L 3366 3988 
Q 3128 4100 2886 4159 
Q 2644 4219 2406 4219 
Q 1781 4219 1451 3797 
Q 1122 3375 1075 2522 
Q 1259 2794 1537 2939 
Q 1816 3084 2150 3084 
Q 2853 3084 3261 2657 
Q 3669 2231 3669 1497 
Q 3669 778 3244 343 
Q 2819 -91 2113 -91 
Q 1303 -91 875 529 
Q 447 1150 447 2328 
Q 447 3434 972 4092 
Q 1497 4750 2381 4750 
Q 2619 4750 2861 4703 
Q 3103 4656 3366 4563 
z
" transform="scale(0.015625)"/>
       </defs>
       <use xlink:href="#DejaVuSans-30"/>
       <use xlink:href="#DejaVuSans-2e" transform="translate(63.623047 0)"/>
       <use xlink:href="#DejaVuSans-36" transform="translate(95.410156 0)"/>
      </g>
     </g>
    </g>
    <g id="ytick_5">
     <g id="line2d_23">
      <path d="M 49.16 75.045869 
L 565.2 75.045869 
" clip-path="url(#p71b288f8b5)" style="fill: none; stroke: #b0b0b0; stroke-opacity: 0.3; stroke-width: 0.8; stroke-linecap: square"/>
     </g>
     <g id="line2d_24">
      <g>
       <use xlink:href="#m1d4c8b316c" x="49.16" y="75.045869" style="stroke: #000000; stroke-width: 0.8"/>
      </g>
     </g>
     <g id="text_13">
      <!-- 0.8 -->
      <g transform="translate(26.256875 78.845088) scale(0.1 -0.1)">
       <defs>
        <path id="DejaVuSans-38" d="M 2034 2216 
Q 1584 2216 1326 1975 
Q 1069 1734 1069 1313 
Q 1069 891 1326 650 
Q 1584 409 2034 409 
Q 2484 409 2743 651 
Q 3003 894 3003 1313 
Q 3003 1734 2745 1975 
Q 2488 2216 2034 2216 
z
M 1403 2484 
Q 997 2584 770 2862 
Q 544 3141 544 3541 
Q 544 4100 942 4425 
Q 1341 4750 2034 4750 
Q 2731 4750 3128 4425 
Q 3525 4100 3525 3541 
Q 3525 3141 3298 2862 
Q 3072 2584 2669 2484 
Q 3125 2378 3379 2068 
Q 3634 1759 3634 1313 
Q 3634 634 3220 271 
Q 2806 -91 2034 -91 
Q 1263 -91 848 271 
Q 434 634 434 1313 
Q 434 1759 690 2068 
Q 947 2378 1403 2484 
z
M 1172 3481 
Q 1172 3119 1398 2916 
Q 1625 2713 2034 2713 
Q 2441 2713 2670 2916 
Q 2900 3119 2900 3481 
Q 2900 3844 2670 4047 
Q 2441 4250 2034 4250 
Q 1625 4250 1398 4047 
Q 1172 3844 1172 3481 
z
" transform="scale(0.015625)"/>
       </defs>
       <use xlink:href="#DejaVuSans-30"/>
       <use xlink:href="#DejaVuSans-2e" transform="translate(63.623047 0)"/>
       <use xlink:href="#DejaVuSans-38" transform="translate(95.410156 0)"/>
      </g>
     </g>
    </g>
    <g id="ytick_6">
     <g id="line2d_25">
      <path d="M 49.16 38.86636 
L 565.2 38.86636 
" clip-path="url(#p71b288f8b5)" style="fill: none; stroke: #b0b0b0; stroke-opacity: 0.3; stroke-width: 0.8; stroke-linecap: square"/>
     </g>
     <g id="line2d_26">
      <g>
       <use xlink:href="#m1d4c8b316c" x="49.16" y="38.86636" style="stroke: #000000; stroke-width: 0.8"/>
      </g>
     </g>
     <g id="text_14">
      <!-- 1.0 -->
      <g transform="translate(26.256875 42.665579) scale(0.1 -0.1)">
       <use xlink:href="#DejaVuSans-31"/>
       <use xlink:href="#DejaVuSans-2e" transform="translate(63.623047 0)"/>
       <use xlink:href="#DejaVuSans-30" transform="translate(95.410156 0)"/>
      </g>
     </g>
    </g>
    <g id="text_15">
     <!-- $h(n)$ -->
     <g transform="translate(20.177188 147.79) rotate(-90) scale(0.1 -0.1)">
      <defs>
       <path id="DejaVuSans-Oblique-68" d="M 3566 2113 
L 3156 0 
L 2578 0 
L 2988 2091 
Q 3016 2238 3031 2350 
Q 3047 2463 3047 2528 
Q 3047 2791 2881 2937 
Q 2716 3084 2419 3084 
Q 1956 3084 1617 2771 
Q 1278 2459 1178 1941 
L 800 0 
L 225 0 
L 1172 4863 
L 1747 4863 
L 1375 2950 
Q 1594 3244 1934 3414 
Q 2275 3584 2650 3584 
Q 3113 3584 3367 3334 
Q 3622 3084 3622 2631 
Q 3622 2519 3608 2391 
Q 3594 2263 3566 2113 
z
" transform="scale(0.015625)"/>
       <path id="DejaVuSans-28" d="M 1984 4856 
Q 1566 4138 1362 3434 
Q 1159 2731 1159 2009 
Q 1159 1288 1364 580 
Q 1569 -128 1984 -844 
L 1484 -844 
Q 1016 -109 783 600 
Q 550 1309 550 2009 
Q 550 2706 781 3412 
Q 1013 4119 1484 4856 
L 1984 4856 
z
" transform="scale(0.015625)"/>
       <path id="DejaVuSans-29" d="M 513 4856 
L 1013 4856 
Q 1481 4119 1714 3412 
Q 1947 2706 1947 2009 
Q 1947 1309 1714 600 
Q 1481 -109 1013 -844 
L 513 -844 
Q 928 -128 1133 580 
Q 1338 1288 1338 2009 
Q 1338 2731 1133 3434 
Q 928 4138 513 4856 
z
" transform="scale(0.015625)"/>
      </defs>
      <use xlink:href="#DejaVuSans-Oblique-68" transform="translate(0 0.015625)"/>
      <use xlink:href="#DejaVuSans-28" transform="translate(63.378906 0.015625)"/>
      <use xlink:href="#DejaVuSans-Oblique-6e" transform="translate(102.392578 0.015625)"/>
      <use xlink:href="#DejaVuSans-29" transform="translate(165.771484 0.015625)"/>
     </g>
    </g>
   </g>
   <g id="line2d_27">
    <path d="M 72.616364 38.903636 
L 72.694565 219.802274 
L 72.772765 219.801815 
L 77.543021 219.790538 
L 79.498044 219.802241 
L 85.206711 219.782612 
L 86.379724 219.803324 
L 92.088391 219.783248 
L 93.261404 219.804431 
L 97.484254 219.768009 
L 99.830281 219.786556 
L 100.925094 219.768033 
L 103.271121 219.786767 
L 104.365934 219.768047 
L 106.63376 219.780603 
L 107.806774 219.768049 
L 110.074601 219.780695 
L 111.247614 219.76804 
L 113.515441 219.780779 
L 114.610254 219.772845 
L 115.783267 219.809563 
L 120.475322 219.787747 
L 121.491934 219.772975 
L 122.586747 219.811196 
L 156.838746 219.811925 
L 157.777157 219.761818 
L 160.123184 219.798064 
L 160.983395 219.780784 
L 161.843605 219.798219 
L 162.703815 219.780834 
L 163.564025 219.798375 
L 164.424235 219.780881 
L 165.284445 219.798531 
L 166.144655 219.780925 
L 167.004865 219.798687 
L 167.865075 219.780968 
L 168.725285 219.798843 
L 169.585495 219.781008 
L 170.445705 219.799 
L 171.227714 219.790386 
L 172.087924 219.789747 
L 172.948134 219.790543 
L 173.808344 219.789782 
L 174.668554 219.790701 
L 175.528764 219.789814 
L 176.388974 219.790859 
L 177.249184 219.789843 
L 178.109394 219.791018 
L 178.969604 219.789869 
L 179.829814 219.791178 
L 180.690024 219.789893 
L 181.550234 219.791338 
L 182.410444 219.789914 
L 183.270655 219.791499 
L 184.130865 219.789931 
L 184.912874 219.80199 
L 185.851285 219.789946 
L 186.633294 219.802298 
L 187.493504 219.779402 
L 188.353714 219.802611 
L 189.213924 219.779259 
L 190.074134 219.802929 
L 190.934344 219.779108 
L 191.794554 219.803253 
L 192.654764 219.77895 
L 193.514974 219.803584 
L 194.375184 219.778782 
L 195.235394 219.803921 
L 196.095604 219.778606 
L 196.955814 219.804264 
L 197.816024 219.778421 
L 198.676234 219.804615 
L 199.536444 219.778226 
L 200.396654 219.804973 
L 201.256864 219.778021 
L 202.117074 219.805339 
L 202.977284 219.777806 
L 203.837494 219.805714 
L 204.697704 219.77758 
L 205.557915 219.806097 
L 206.418125 219.777342 
L 207.278335 219.80649 
L 208.138545 219.777092 
L 208.998755 219.806893 
L 209.858965 219.77683 
L 210.719175 219.807306 
L 211.579385 219.776555 
L 212.361394 219.819708 
L 213.299805 219.776265 
L 214.081814 219.820355 
L 215.020225 219.775962 
L 215.802234 219.821022 
L 216.740645 219.775642 
L 217.522654 219.821711 
L 218.461065 219.775307 
L 219.243074 219.822423 
L 220.181485 219.774955 
L 220.963494 219.82316 
L 221.901905 219.774584 
L 222.683914 219.823922 
L 223.622325 219.774195 
L 224.404334 219.824713 
L 225.342745 219.773785 
L 226.124754 219.825533 
L 226.984964 219.759296 
L 227.845174 219.826384 
L 228.705385 219.758548 
L 229.565595 219.827269 
L 230.425805 219.757762 
L 231.286015 219.828191 
L 232.146225 219.756936 
L 233.006435 219.829151 
L 233.866645 219.756068 
L 234.726855 219.830152 
L 235.587065 219.755154 
L 236.447275 219.831199 
L 237.307485 219.754191 
L 238.167695 219.832293 
L 239.027905 219.753176 
L 239.888115 219.833439 
L 240.748325 219.752105 
L 241.608535 219.834642 
L 242.468745 219.750972 
L 243.328955 219.835905 
L 244.189165 219.749774 
L 245.049375 219.837234 
L 245.909585 219.748505 
L 246.769795 219.838634 
L 247.630005 219.747159 
L 248.490215 219.840112 
L 249.350425 219.745728 
L 250.132434 219.857236 
L 251.149046 219.764023 
L 251.852855 219.859347 
L 252.869466 219.763006 
L 253.573275 219.861588 
L 254.511686 219.740852 
L 255.293695 219.863974 
L 256.232106 219.738999 
L 257.014115 219.86652 
L 257.952526 219.737013 
L 258.734535 219.869242 
L 259.672946 219.734879 
L 260.454955 219.87216 
L 261.393366 219.73258 
L 262.175375 219.875297 
L 263.113786 219.730098 
L 263.895795 219.878679 
L 264.834206 219.727411 
L 265.616215 219.882337 
L 266.554626 219.724492 
L 267.336635 219.886306 
L 268.275046 219.721311 
L 269.057055 219.890629 
L 269.995466 219.717832 
L 270.777475 219.895356 
L 271.715886 219.714011 
L 272.419694 219.916745 
L 273.592708 219.779089 
L 274.140115 219.923246 
L 275.313128 219.778084 
L 275.782334 219.937156 
L 276.173338 219.810137 
L 276.642544 219.646478 
L 277.033548 219.77696 
L 277.502754 219.945496 
L 277.893758 219.811375 
L 278.362964 219.637696 
L 278.753968 219.775695 
L 279.223174 219.954858 
L 279.614178 219.812763 
L 280.083384 219.627794 
L 280.474388 219.774264 
L 280.943594 219.965443 
L 281.256398 219.862023 
L 281.803804 219.616546 
L 282.116608 219.723315 
L 282.664014 219.977508 
L 282.976818 219.867172 
L 283.524224 219.603658 
L 283.837028 219.717833 
L 284.384434 219.99139 
L 284.697238 219.873104 
L 285.244644 219.588745 
L 285.557448 219.711474 
L 286.104854 220.007533 
L 286.417658 219.880016 
L 286.965064 219.57129 
L 287.277868 219.704011 
L 287.825274 220.026541 
L 288.138078 219.888171 
L 288.685484 219.550584 
L 288.998288 219.695132 
L 289.545694 220.049253 
L 289.858498 219.897942 
L 290.405904 219.525626 
L 290.640507 219.619083 
L 291.344315 220.065514 
L 291.657119 219.830916 
L 292.126324 219.49496 
L 292.360927 219.598398 
L 292.986534 220.111178 
L 293.221137 220.001878 
L 293.846744 219.456377 
L 294.081347 219.572275 
L 294.706954 220.154944 
L 294.941557 220.031582 
L 295.567165 219.406359 
L 295.801767 219.538249 
L 296.427375 220.212709 
L 296.661977 220.070997 
L 297.287585 219.338939 
L 297.522187 219.492096 
L 298.147795 220.292474 
L 298.304196 220.218359 
L 298.617 219.714859 
L 298.929804 219.269216 
L 299.086206 219.261577 
L 299.320808 219.560077 
L 299.868215 220.409768 
L 300.024617 220.320968 
L 300.33742 219.696052 
L 300.650224 219.131263 
L 300.806626 219.117508 
L 301.041228 219.493388 
L 301.588635 220.599236 
L 301.745037 220.488529 
L 302.05784 219.664605 
L 302.370644 218.89461 
L 302.527046 218.866898 
L 302.683448 219.141702 
L 303.387256 220.931768 
L 303.543658 220.601506 
L 304.169265 218.298685 
L 304.247466 218.322236 
L 304.403868 218.735365 
L 305.107676 221.87733 
L 305.264078 221.329564 
L 305.576881 218.623407 
L 305.889685 216.304851 
L 305.967886 216.231437 
L 306.124288 217.004672 
L 306.35889 220.578726 
L 307.1409 236.176364 
L 307.2191 236.176364 
L 307.375502 234.871353 
L 307.688306 228.293725 
L 308.157511 217.884759 
L 308.392114 216.231437 
L 308.470315 216.304851 
L 308.626717 217.173701 
L 309.252324 221.87733 
L 309.330525 221.887571 
L 309.486927 221.438209 
L 310.190735 218.298685 
L 310.347137 218.595813 
L 311.050945 220.95711 
L 311.207347 220.73686 
L 311.911155 218.842457 
L 312.067557 219.016757 
L 312.771365 220.599236 
L 312.849566 220.557203 
L 313.084169 220.114814 
L 313.553374 219.117508 
L 313.709776 219.131263 
L 313.944379 219.513559 
L 314.413584 220.389974 
L 314.569986 220.379814 
L 314.804589 220.043331 
L 315.273794 219.261577 
L 315.430196 219.269216 
L 315.664799 219.569616 
L 316.134004 220.275221 
L 316.290406 220.269417 
L 316.525009 219.998164 
L 316.994214 219.355134 
L 317.228817 219.414763 
L 318.010826 220.194088 
L 318.245429 219.967038 
L 318.714635 219.42078 
L 318.949237 219.469854 
L 319.731246 220.139405 
L 320.04405 219.848175 
L 320.435055 219.469382 
L 320.669657 219.51089 
L 321.529867 220.060298 
L 322.390077 219.54264 
L 323.250287 220.032027 
L 324.110498 219.567934 
L 324.970708 220.009219 
L 325.830918 219.588559 
L 326.691128 219.99043 
L 327.551338 219.605697 
L 328.411548 219.974681 
L 329.271758 219.620162 
L 330.131968 219.96129 
L 330.992178 219.632534 
L 331.852388 219.949761 
L 332.712598 219.643236 
L 333.572808 219.939732 
L 334.511219 219.682726 
L 335.215027 219.949145 
L 335.684233 219.732285 
L 336.075237 219.643187 
L 336.544443 219.853523 
L 336.935447 219.94021 
L 337.404653 219.735998 
L 337.795657 219.651569 
L 338.264863 219.849973 
L 338.655867 219.932247 
L 339.125073 219.739308 
L 339.516077 219.659055 
L 340.063484 219.880098 
L 340.454488 219.909948 
L 341.392899 219.704339 
L 342.174908 219.904323 
L 343.113319 219.70844 
L 343.895328 219.899221 
L 344.833739 219.712163 
L 345.615748 219.894571 
L 346.554159 219.715557 
L 347.336168 219.890316 
L 348.274579 219.718664 
L 349.056589 219.886406 
L 350.0732 219.746075 
L 350.777009 219.882801 
L 351.79362 219.747724 
L 352.497429 219.879466 
L 353.514041 219.749247 
L 354.217849 219.87637 
L 355.234461 219.750658 
L 355.938269 219.873489 
L 356.954881 219.751967 
L 357.658689 219.870801 
L 358.675301 219.753185 
L 359.379109 219.868285 
L 360.395721 219.754321 
L 361.099529 219.865926 
L 362.116141 219.755382 
L 362.819949 219.863709 
L 363.914762 219.777704 
L 364.540369 219.861621 
L 365.635182 219.777993 
L 366.260789 219.859651 
L 367.355602 219.778262 
L 367.981209 219.857788 
L 369.076022 219.778512 
L 369.701629 219.856023 
L 370.796442 219.778745 
L 371.422049 219.85435 
L 372.516862 219.778962 
L 373.22067 219.840954 
L 374.159081 219.76119 
L 374.94109 219.839767 
L 375.879501 219.761839 
L 376.661511 219.838635 
L 377.599922 219.762453 
L 378.381931 219.837554 
L 379.320342 219.763034 
L 380.102351 219.83652 
L 381.040762 219.763584 
L 381.822771 219.83553 
L 382.761182 219.764106 
L 383.543191 219.83458 
L 384.481602 219.764601 
L 385.263611 219.833669 
L 386.202022 219.76507 
L 387.062232 219.819976 
L 387.922442 219.765516 
L 388.782652 219.81942 
L 389.642862 219.76594 
L 390.503072 219.818883 
L 391.363282 219.766342 
L 392.223492 219.818364 
L 393.083702 219.766725 
L 393.943912 219.817862 
L 394.804122 219.767089 
L 395.664332 219.817375 
L 396.524542 219.767436 
L 397.384752 219.816904 
L 398.244962 219.767765 
L 399.105172 219.816446 
L 399.965382 219.768079 
L 400.825592 219.816001 
L 401.685802 219.768378 
L 402.546013 219.815569 
L 403.406223 219.768663 
L 404.266433 219.815148 
L 405.126643 219.768934 
L 406.065054 219.802696 
L 406.847063 219.769192 
L 407.785474 219.80251 
L 408.567483 219.769438 
L 409.505894 219.802328 
L 410.287903 219.769672 
L 411.226314 219.802147 
L 412.008323 219.769894 
L 412.946734 219.801969 
L 413.806944 219.781232 
L 414.667154 219.801792 
L 415.527364 219.781249 
L 416.387574 219.801618 
L 417.247784 219.781262 
L 418.107994 219.801445 
L 418.968204 219.781271 
L 419.828414 219.801274 
L 420.688624 219.781276 
L 421.548834 219.801105 
L 422.409044 219.781278 
L 423.269254 219.800937 
L 424.129464 219.781276 
L 424.989674 219.800771 
L 425.849884 219.78127 
L 426.710094 219.800605 
L 427.570304 219.781261 
L 428.430514 219.800441 
L 429.290725 219.781249 
L 430.150935 219.800278 
L 431.011145 219.781234 
L 431.871355 219.800115 
L 432.731565 219.781215 
L 433.591775 219.799954 
L 434.530186 219.791178 
L 435.390396 219.789869 
L 436.250606 219.791018 
L 437.110816 219.789843 
L 437.971026 219.790859 
L 438.831236 219.789814 
L 439.691446 219.790701 
L 440.551656 219.789782 
L 441.411866 219.790543 
L 442.272076 219.789747 
L 443.132286 219.790386 
L 443.992496 219.78971 
L 444.852706 219.79023 
L 445.712916 219.789671 
L 446.573126 219.790074 
L 447.433336 219.789629 
L 448.293546 219.789918 
L 449.153756 219.789584 
L 450.013966 219.789763 
L 450.874176 219.789538 
L 451.734386 219.789608 
L 452.594596 219.789489 
L 453.454806 219.789453 
L 454.315016 219.789437 
L 455.175226 219.789299 
L 456.113637 219.780862 
L 456.973847 219.797609 
L 457.834057 219.780901 
L 458.694268 219.797361 
L 459.554478 219.780937 
L 460.414688 219.797115 
L 461.274898 219.780968 
L 462.135108 219.796871 
L 462.995318 219.780996 
L 463.855528 219.796629 
L 464.715738 219.78102 
L 465.575948 219.796389 
L 466.514359 219.773682 
L 467.45277 219.809562 
L 468.547582 219.760847 
L 473.317838 219.781083 
L 474.256249 219.802246 
L 475.19466 219.768212 
L 477.227884 219.763613 
L 480.043117 219.795746 
L 481.137929 219.801077 
L 482.154541 219.764519 
L 484.578769 219.800507 
L 485.595381 219.764764 
L 488.01961 219.799947 
L 489.036221 219.764988 
L 491.538651 219.804803 
L 493.650075 219.805663 
L 495.996103 219.763199 
L 515.624532 219.800605 
L 517.814157 219.797671 
L 519.299975 219.806049 
L 525.947052 219.798926 
L 528.214879 219.791342 
L 529.544294 219.803854 
L 541.743636 219.80118 
L 541.743636 219.80118 
" clip-path="url(#p71b288f8b5)" style="fill: none; stroke: #1f77b4; stroke-width: 0.5; stroke-linecap: square"/>
   </g>
   <g id="patch_3">
    <path d="M 49.16 246.04 
L 49.16 29.04 
" style="fill: none; stroke: #000000; stroke-width: 0.8; stroke-linejoin: miter; stroke-linecap: square"/>
   </g>
   <g id="patch_4">
    <path d="M 565.2 246.04 
L 565.2 29.04 
" style="fill: none; stroke: #000000; stroke-width: 0.8; stroke-linejoin: miter; stroke-linecap: square"/>
   </g>
   <g id="patch_5">
    <path d="M 49.16 246.04 
L 565.2 246.04 
" style="fill: none; stroke: #000000; stroke-width: 0.8; stroke-linejoin: miter; stroke-linecap: square"/>
   </g>
   <g id="patch_6">
    <path d="M 49.16 29.04 
L 565.2 29.04 
" style="fill: none; stroke: #000000; stroke-width: 0.8; stroke-linejoin: miter; stroke-linecap: square"/>
   </g>
   <g id="text_16">
    <!-- Réponse impulsionnelle $h(n)$ du filtre coupe-bande -->
    <g transform="translate(155.02 23.04) scale(0.12 -0.12)">
     <defs>
      <path id="DejaVuSans-52" d="M 2841 2188 
Q 3044 2119 3236 1894 
Q 3428 1669 3622 1275 
L 4263 0 
L 3584 0 
L 2988 1197 
Q 2756 1666 2539 1819 
Q 2322 1972 1947 1972 
L 1259 1972 
L 1259 0 
L 628 0 
L 628 4666 
L 2053 4666 
Q 2853 4666 3247 4331 
Q 3641 3997 3641 3322 
Q 3641 2881 3436 2590 
Q 3231 2300 2841 2188 
z
M 1259 4147 
L 1259 2491 
L 2053 2491 
Q 2509 2491 2742 2702 
Q 2975 2913 2975 3322 
Q 2975 3731 2742 3939 
Q 2509 4147 2053 4147 
L 1259 4147 
z
" transform="scale(0.015625)"/>
      <path id="DejaVuSans-e9" d="M 3597 1894 
L 3597 1613 
L 953 1613 
Q 991 1019 1311 708 
Q 1631 397 2203 397 
Q 2534 397 2845 478 
Q 3156 559 3463 722 
L 3463 178 
Q 3153 47 2828 -22 
Q 2503 -91 2169 -91 
Q 1331 -91 842 396 
Q 353 884 353 1716 
Q 353 2575 817 3079 
Q 1281 3584 2069 3584 
Q 2775 3584 3186 3129 
Q 3597 2675 3597 1894 
z
M 3022 2063 
Q 3016 2534 2758 2815 
Q 2500 3097 2075 3097 
Q 1594 3097 1305 2825 
Q 1016 2553 972 2059 
L 3022 2063 
z
M 2466 5119 
L 3088 5119 
L 2070 3944 
L 1591 3944 
L 2466 5119 
z
" transform="scale(0.015625)"/>
      <path id="DejaVuSans-70" d="M 1159 525 
L 1159 -1331 
L 581 -1331 
L 581 3500 
L 1159 3500 
L 1159 2969 
Q 1341 3281 1617 3432 
Q 1894 3584 2278 3584 
Q 2916 3584 3314 3078 
Q 3713 2572 3713 1747 
Q 3713 922 3314 415 
Q 2916 -91 2278 -91 
Q 1894 -91 1617 61 
Q 1341 213 1159 525 
z
M 3116 1747 
Q 3116 2381 2855 2742 
Q 2594 3103 2138 3103 
Q 1681 3103 1420 2742 
Q 1159 2381 1159 1747 
Q 1159 1113 1420 752 
Q 1681 391 2138 391 
Q 2594 391 2855 752 
Q 3116 1113 3116 1747 
z
" transform="scale(0.015625)"/>
      <path id="DejaVuSans-6f" d="M 1959 3097 
Q 1497 3097 1228 2736 
Q 959 2375 959 1747 
Q 959 1119 1226 758 
Q 1494 397 1959 397 
Q 2419 397 2687 759 
Q 2956 1122 2956 1747 
Q 2956 2369 2687 2733 
Q 2419 3097 1959 3097 
z
M 1959 3584 
Q 2709 3584 3137 3096 
Q 3566 2609 3566 1747 
Q 3566 888 3137 398 
Q 2709 -91 1959 -91 
Q 1206 -91 779 398 
Q 353 888 353 1747 
Q 353 2609 779 3096 
Q 1206 3584 1959 3584 
z
" transform="scale(0.015625)"/>
      <path id="DejaVuSans-6e" d="M 3513 2113 
L 3513 0 
L 2938 0 
L 2938 2094 
Q 2938 2591 2744 2837 
Q 2550 3084 2163 3084 
Q 1697 3084 1428 2787 
Q 1159 2491 1159 1978 
L 1159 0 
L 581 0 
L 581 3500 
L 1159 3500 
L 1159 2956 
Q 1366 3272 1645 3428 
Q 1925 3584 2291 3584 
Q 2894 3584 3203 3211 
Q 3513 2838 3513 2113 
z
" transform="scale(0.015625)"/>
      <path id="DejaVuSans-73" d="M 2834 3397 
L 2834 2853 
Q 2591 2978 2328 3040 
Q 2066 3103 1784 3103 
Q 1356 3103 1142 2972 
Q 928 2841 928 2578 
Q 928 2378 1081 2264 
Q 1234 2150 1697 2047 
L 1894 2003 
Q 2506 1872 2764 1633 
Q 3022 1394 3022 966 
Q 3022 478 2636 193 
Q 2250 -91 1575 -91 
Q 1294 -91 989 -36 
Q 684 19 347 128 
L 347 722 
Q 666 556 975 473 
Q 1284 391 1588 391 
Q 1994 391 2212 530 
Q 2431 669 2431 922 
Q 2431 1156 2273 1281 
Q 2116 1406 1581 1522 
L 1381 1569 
Q 847 1681 609 1914 
Q 372 2147 372 2553 
Q 372 3047 722 3315 
Q 1072 3584 1716 3584 
Q 2034 3584 2315 3537 
Q 2597 3491 2834 3397 
z
" transform="scale(0.015625)"/>
      <path id="DejaVuSans-65" d="M 3597 1894 
L 3597 1613 
L 953 1613 
Q 991 1019 1311 708 
Q 1631 397 2203 397 
Q 2534 397 2845 478 
Q 3156 559 3463 722 
L 3463 178 
Q 3153 47 2828 -22 
Q 2503 -91 2169 -91 
Q 1331 -91 842 396 
Q 353 884 353 1716 
Q 353 2575 817 3079 
Q 1281 3584 2069 3584 
Q 2775 3584 3186 3129 
Q 3597 2675 3597 1894 
z
M 3022 2063 
Q 3016 2534 2758 2815 
Q 2500 3097 2075 3097 
Q 1594 3097 1305 2825 
Q 1016 2553 972 2059 
L 3022 2063 
z
" transform="scale(0.015625)"/>
      <path id="DejaVuSans-20" transform="scale(0.015625)"/>
      <path id="DejaVuSans-69" d="M 603 3500 
L 1178 3500 
L 1178 0 
L 603 0 
L 603 3500 
z
M 603 4863 
L 1178 4863 
L 1178 4134 
L 603 4134 
L 603 4863 
z
" transform="scale(0.015625)"/>
      <path id="DejaVuSans-6d" d="M 3328 2828 
Q 3544 3216 3844 3400 
Q 4144 3584 4550 3584 
Q 5097 3584 5394 3201 
Q 5691 2819 5691 2113 
L 5691 0 
L 5113 0 
L 5113 2094 
Q 5113 2597 4934 2840 
Q 4756 3084 4391 3084 
Q 3944 3084 3684 2787 
Q 3425 2491 3425 1978 
L 3425 0 
L 2847 0 
L 2847 2094 
Q 2847 2600 2669 2842 
Q 2491 3084 2119 3084 
Q 1678 3084 1418 2786 
Q 1159 2488 1159 1978 
L 1159 0 
L 581 0 
L 581 3500 
L 1159 3500 
L 1159 2956 
Q 1356 3278 1631 3431 
Q 1906 3584 2284 3584 
Q 2666 3584 2933 3390 
Q 3200 3197 3328 2828 
z
" transform="scale(0.015625)"/>
      <path id="DejaVuSans-75" d="M 544 1381 
L 544 3500 
L 1119 3500 
L 1119 1403 
Q 1119 906 1312 657 
Q 1506 409 1894 409 
Q 2359 409 2629 706 
Q 2900 1003 2900 1516 
L 2900 3500 
L 3475 3500 
L 3475 0 
L 2900 0 
L 2900 538 
Q 2691 219 2414 64 
Q 2138 -91 1772 -91 
Q 1169 -91 856 284 
Q 544 659 544 1381 
z
M 1991 3584 
L 1991 3584 
z
" transform="scale(0.015625)"/>
      <path id="DejaVuSans-6c" d="M 603 4863 
L 1178 4863 
L 1178 0 
L 603 0 
L 603 4863 
z
" transform="scale(0.015625)"/>
      <path id="DejaVuSans-64" d="M 2906 2969 
L 2906 4863 
L 3481 4863 
L 3481 0 
L 2906 0 
L 2906 525 
Q 2725 213 2448 61 
Q 2172 -91 1784 -91 
Q 1150 -91 751 415 
Q 353 922 353 1747 
Q 353 2572 751 3078 
Q 1150 3584 1784 3584 
Q 2172 3584 2448 3432 
Q 2725 3281 2906 2969 
z
M 947 1747 
Q 947 1113 1208 752 
Q 1469 391 1925 391 
Q 2381 391 2643 752 
Q 2906 1113 2906 1747 
Q 2906 2381 2643 2742 
Q 2381 3103 1925 3103 
Q 1469 3103 1208 2742 
Q 947 2381 947 1747 
z
" transform="scale(0.015625)"/>
      <path id="DejaVuSans-66" d="M 2375 4863 
L 2375 4384 
L 1825 4384 
Q 1516 4384 1395 4259 
Q 1275 4134 1275 3809 
L 1275 3500 
L 2222 3500 
L 2222 3053 
L 1275 3053 
L 1275 0 
L 697 0 
L 697 3053 
L 147 3053 
L 147 3500 
L 697 3500 
L 697 3744 
Q 697 4328 969 4595 
Q 1241 4863 1831 4863 
L 2375 4863 
z
" transform="scale(0.015625)"/>
      <path id="DejaVuSans-74" d="M 1172 4494 
L 1172 3500 
L 2356 3500 
L 2356 3053 
L 1172 3053 
L 1172 1153 
Q 1172 725 1289 603 
Q 1406 481 1766 481 
L 2356 481 
L 2356 0 
L 1766 0 
Q 1100 0 847 248 
Q 594 497 594 1153 
L 594 3053 
L 172 3053 
L 172 3500 
L 594 3500 
L 594 4494 
L 1172 4494 
z
" transform="scale(0.015625)"/>
      <path id="DejaVuSans-72" d="M 2631 2963 
Q 2534 3019 2420 3045 
Q 2306 3072 2169 3072 
Q 1681 3072 1420 2755 
Q 1159 2438 1159 1844 
L 1159 0 
L 581 0 
L 581 3500 
L 1159 3500 
L 1159 2956 
Q 1341 3275 1631 3429 
Q 1922 3584 2338 3584 
Q 2397 3584 2469 3576 
Q 2541 3569 2628 3553 
L 2631 2963 
z
" transform="scale(0.015625)"/>
      <path id="DejaVuSans-63" d="M 3122 3366 
L 3122 2828 
Q 2878 2963 2633 3030 
Q 2388 3097 2138 3097 
Q 1578 3097 1268 2742 
Q 959 2388 959 1747 
Q 959 1106 1268 751 
Q 1578 397 2138 397 
Q 2388 397 2633 464 
Q 2878 531 3122 666 
L 3122 134 
Q 2881 22 2623 -34 
Q 2366 -91 2075 -91 
Q 1284 -91 818 406 
Q 353 903 353 1747 
Q 353 2603 823 3093 
Q 1294 3584 2113 3584 
Q 2378 3584 2631 3529 
Q 2884 3475 3122 3366 
z
" transform="scale(0.015625)"/>
      <path id="DejaVuSans-2d" d="M 313 2009 
L 1997 2009 
L 1997 1497 
L 313 1497 
L 313 2009 
z
" transform="scale(0.015625)"/>
      <path id="DejaVuSans-62" d="M 3116 1747 
Q 3116 2381 2855 2742 
Q 2594 3103 2138 3103 
Q 1681 3103 1420 2742 
Q 1159 2381 1159 1747 
Q 1159 1113 1420 752 
Q 1681 391 2138 391 
Q 2594 391 2855 752 
Q 3116 1113 3116 1747 
z
M 1159 2969 
Q 1341 3281 1617 3432 
Q 1894 3584 2278 3584 
Q 2916 3584 3314 3078 
Q 3713 2572 3713 1747 
Q 3713 922 3314 415 
Q 2916 -91 2278 -91 
Q 1894 -91 1617 61 
Q 1341 213 1159 525 
L 1159 0 
L 581 0 
L 581 4863 
L 1159 4863 
L 1159 2969 
z
" transform="scale(0.015625)"/>
      <path id="DejaVuSans-61" d="M 2194 1759 
Q 1497 1759 1228 1600 
Q 959 1441 959 1056 
Q 959 750 1161 570 
Q 1363 391 1709 391 
Q 2188 391 2477 730 
Q 2766 1069 2766 1631 
L 2766 1759 
L 2194 1759 
z
M 3341 1997 
L 3341 0 
L 2766 0 
L 2766 531 
Q 2569 213 2275 61 
Q 1981 -91 1556 -91 
Q 1019 -91 701 211 
Q 384 513 384 1019 
Q 384 1609 779 1909 
Q 1175 2209 1959 2209 
L 2766 2209 
L 2766 2266 
Q 2766 2663 2505 2880 
Q 2244 3097 1772 3097 
Q 1472 3097 1187 3025 
Q 903 2953 641 2809 
L 641 3341 
Q 956 3463 1253 3523 
Q 1550 3584 1831 3584 
Q 2591 3584 2966 3190 
Q 3341 2797 3341 1997 
z
" transform="scale(0.015625)"/>
     </defs>
     <use xlink:href="#DejaVuSans-52" transform="translate(0 0.015625)"/>
     <use xlink:href="#DejaVuSans-e9" transform="translate(69.482422 0.015625)"/>
     <use xlink:href="#DejaVuSans-70" transform="translate(131.005859 0.015625)"/>
     <use xlink:href="#DejaVuSans-6f" transform="translate(194.482422 0.015625)"/>
     <use xlink:href="#DejaVuSans-6e" transform="translate(255.664062 0.015625)"/>
     <use xlink:href="#DejaVuSans-73" transform="translate(319.042969 0.015625)"/>
     <use xlink:href="#DejaVuSans-65" transform="translate(371.142578 0.015625)"/>
     <use xlink:href="#DejaVuSans-20" transform="translate(432.666016 0.015625)"/>
     <use xlink:href="#DejaVuSans-69" transform="translate(464.453125 0.015625)"/>
     <use xlink:href="#DejaVuSans-6d" transform="translate(492.236328 0.015625)"/>
     <use xlink:href="#DejaVuSans-70" transform="translate(589.648438 0.015625)"/>
     <use xlink:href="#DejaVuSans-75" transform="translate(653.125 0.015625)"/>
     <use xlink:href="#DejaVuSans-6c" transform="translate(716.503906 0.015625)"/>
     <use xlink:href="#DejaVuSans-73" transform="translate(744.287109 0.015625)"/>
     <use xlink:href="#DejaVuSans-69" transform="translate(796.386719 0.015625)"/>
     <use xlink:href="#DejaVuSans-6f" transform="translate(824.169922 0.015625)"/>
     <use xlink:href="#DejaVuSans-6e" transform="translate(885.351562 0.015625)"/>
     <use xlink:href="#DejaVuSans-6e" transform="translate(948.730469 0.015625)"/>
     <use xlink:href="#DejaVuSans-65" transform="translate(1012.109375 0.015625)"/>
     <use xlink:href="#DejaVuSans-6c" transform="translate(1073.632812 0.015625)"/>
     <use xlink:href="#DejaVuSans-6c" transform="translate(1101.416016 0.015625)"/>
     <use xlink:href="#DejaVuSans-65" transform="translate(1129.199219 0.015625)"/>
     <use xlink:href="#DejaVuSans-20" transform="translate(1190.722656 0.015625)"/>
     <use xlink:href="#DejaVuSans-Oblique-68" transform="translate(1222.509766 0.015625)"/>
     <use xlink:href="#DejaVuSans-28" transform="translate(1285.888672 0.015625)"/>
     <use xlink:href="#DejaVuSans-Oblique-6e" transform="translate(1324.902344 0.015625)"/>
     <use xlink:href="#DejaVuSans-29" transform="translate(1388.28125 0.015625)"/>
     <use xlink:href="#DejaVuSans-20" transform="translate(1427.294922 0.015625)"/>
     <use xlink:href="#DejaVuSans-64" transform="translate(1459.082031 0.015625)"/>
     <use xlink:href="#DejaVuSans-75" transform="translate(1522.558594 0.015625)"/>
     <use xlink:href="#DejaVuSans-20" transform="translate(1585.9375 0.015625)"/>
     <use xlink:href="#DejaVuSans-66" transform="translate(1617.724609 0.015625)"/>
     <use xlink:href="#DejaVuSans-69" transform="translate(1652.929688 0.015625)"/>
     <use xlink:href="#DejaVuSans-6c" transform="translate(1680.712891 0.015625)"/>
     <use xlink:href="#DejaVuSans-74" transform="translate(1708.496094 0.015625)"/>
     <use xlink:href="#DejaVuSans-72" transform="translate(1747.705078 0.015625)"/>
     <use xlink:href="#DejaVuSans-65" transform="translate(1788.818359 0.015625)"/>
     <use xlink:href="#DejaVuSans-20" transform="translate(1850.341797 0.015625)"/>
     <use xlink:href="#DejaVuSans-63" transform="translate(1882.128906 0.015625)"/>
     <use xlink:href="#DejaVuSans-6f" transform="translate(1937.109375 0.015625)"/>
     <use xlink:href="#DejaVuSans-75" transform="translate(1998.291016 0.015625)"/>
     <use xlink:href="#DejaVuSans-70" transform="translate(2061.669922 0.015625)"/>
     <use xlink:href="#DejaVuSans-65" transform="translate(2125.146484 0.015625)"/>
     <use xlink:href="#DejaVuSans-2d" transform="translate(2186.669922 0.015625)"/>
     <use xlink:href="#DejaVuSans-62" transform="translate(2222.753906 0.015625)"/>
     <use xlink:href="#DejaVuSans-61" transform="translate(2286.230469 0.015625)"/>
     <use xlink:href="#DejaVuSans-6e" transform="translate(2347.509766 0.015625)"/>
     <use xlink:href="#DejaVuSans-64" transform="translate(2410.888672 0.015625)"/>
     <use xlink:href="#DejaVuSans-65" transform="translate(2474.365234 0.015625)"/>
    </g>
   </g>
  </g>
 </g>
 <defs>
  <clipPath id="p71b288f8b5">
   <rect x="49.16" y="29.04" width="516.04" height="217"/>
  </clipPath>
 </defs>
</svg>
