<?xml version="1.0" encoding="utf-8" standalone="no"?>
<!DOCTYPE svg PUBLIC "-//W3C//DTD SVG 1.1//EN"
  "http://www.w3.org/Graphics/SVG/1.1/DTD/svg11.dtd">
<svg xmlns:xlink="http://www.w3.org/1999/xlink" width="576pt" height="360pt" viewBox="0 0 576 360" xmlns="http://www.w3.org/2000/svg" version="1.1">
 <metadata>
  <rdf:RDF xmlns:dc="http://purl.org/dc/elements/1.1/" xmlns:cc="http://creativecommons.org/ns#" xmlns:rdf="http://www.w3.org/1999/02/22-rdf-syntax-ns#">
   <cc:Work>
    <dc:type rdf:resource="http://purl.org/dc/dcmitype/StillImage"/>
    <dc:date>2026-02-10T23:30:10.216841</dc:date>
    <dc:format>image/svg+xml</dc:format>
    <dc:creator>
     <cc:Agent>
      <dc:title>Matplotlib v3.10.8, https://matplotlib.org/</dc:title>
     </cc:Agent>
    </dc:creator>
   </cc:Work>
  </rdf:RDF>
 </metadata>
 <defs>
  <style type="text/css">*{stroke-linejoin: round; stroke-linecap: butt}</style>
 </defs>
 <g id="figure_1">
  <g id="patch_1">
   <path d="M 0 360 
L 576 360 
L 576 0 
L 0 0 
z
" style="fill: #ffffff"/>
  </g>
  <g id="axes_1">
   <g id="patch_2">
    <path d="M 52.85 143.08 
L 565.2 143.08 
L 565.2 27.24 
L 52.85 27.24 
z
" style="fill: #ffffff"/>
   </g>
   <g id="matplotlib.axis_1">
    <g id="xtick_1">
     <g id="line2d_1">
      <path d="M 110.527167 143.08 
L 110.527167 27.24 
" clip-path="url(#p0fa5946dbc)" style="fill: none; stroke: #b0b0b0; stroke-opacity: 0.3; stroke-width: 0.8; stroke-linecap: square"/>
     </g>
     <g id="line2d_2">
      <defs>
       <path id="m0f2d320b6b" d="M 0 0 
L 0 3.5 
" style="stroke: #000000; stroke-width: 0.8"/>
      </defs>
      <g>
       <use xlink:href="#m0f2d320b6b" x="110.527167" y="143.08" style="stroke: #000000; stroke-width: 0.8"/>
      </g>
     </g>
     <g id="text_1">
      <!-- 2500 -->
      <g transform="translate(97.802167 157.678438) scale(0.1 -0.1)">
       <defs>
        <path id="DejaVuSans-32" d="M 1228 531 
L 3431 531 
L 3431 0 
L 469 0 
L 469 531 
Q 828 903 1448 1529 
Q 2069 2156 2228 2338 
Q 2531 2678 2651 2914 
Q 2772 3150 2772 3378 
Q 2772 3750 2511 3984 
Q 2250 4219 1831 4219 
Q 1534 4219 1204 4116 
Q 875 4013 500 3803 
L 500 4441 
Q 881 4594 1212 4672 
Q 1544 4750 1819 4750 
Q 2544 4750 2975 4387 
Q 3406 4025 3406 3419 
Q 3406 3131 3298 2873 
Q 3191 2616 2906 2266 
Q 2828 2175 2409 1742 
Q 1991 1309 1228 531 
z
" transform="scale(0.015625)"/>
        <path id="DejaVuSans-35" d="M 691 4666 
L 3169 4666 
L 3169 4134 
L 1269 4134 
L 1269 2991 
Q 1406 3038 1543 3061 
Q 1681 3084 1819 3084 
Q 2600 3084 3056 2656 
Q 3513 2228 3513 1497 
Q 3513 744 3044 326 
Q 2575 -91 1722 -91 
Q 1428 -91 1123 -41 
Q 819 9 494 109 
L 494 744 
Q 775 591 1075 516 
Q 1375 441 1709 441 
Q 2250 441 2565 725 
Q 2881 1009 2881 1497 
Q 2881 1984 2565 2268 
Q 2250 2553 1709 2553 
Q 1456 2553 1204 2497 
Q 953 2441 691 2322 
L 691 4666 
z
" transform="scale(0.015625)"/>
        <path id="DejaVuSans-30" d="M 2034 4250 
Q 1547 4250 1301 3770 
Q 1056 3291 1056 2328 
Q 1056 1369 1301 889 
Q 1547 409 2034 409 
Q 2525 409 2770 889 
Q 3016 1369 3016 2328 
Q 3016 3291 2770 3770 
Q 2525 4250 2034 4250 
z
M 2034 4750 
Q 2819 4750 3233 4129 
Q 3647 3509 3647 2328 
Q 3647 1150 3233 529 
Q 2819 -91 2034 -91 
Q 1250 -91 836 529 
Q 422 1150 422 2328 
Q 422 3509 836 4129 
Q 1250 4750 2034 4750 
z
" transform="scale(0.015625)"/>
       </defs>
       <use xlink:href="#DejaVuSans-32"/>
       <use xlink:href="#DejaVuSans-35" transform="translate(63.623047 0)"/>
       <use xlink:href="#DejaVuSans-30" transform="translate(127.246094 0)"/>
       <use xlink:href="#DejaVuSans-30" transform="translate(190.869141 0)"/>
      </g>
     </g>
    </g>
    <g id="xtick_2">
     <g id="line2d_3">
      <path d="M 168.669473 143.08 
L 168.669473 27.24 
" clip-path="url(#p0fa5946dbc)" style="fill: none; stroke: #b0b0b0; stroke-opacity: 0.3; stroke-width: 0.8; stroke-linecap: square"/>
     </g>
     <g id="line2d_4">
      <g>
       <use xlink:href="#m0f2d320b6b" x="168.669473" y="143.08" style="stroke: #000000; stroke-width: 0.8"/>
      </g>
     </g>
     <g id="text_2">
      <!-- 5000 -->
      <g transform="translate(155.944473 157.678438) scale(0.1 -0.1)">
       <use xlink:href="#DejaVuSans-35"/>
       <use xlink:href="#DejaVuSans-30" transform="translate(63.623047 0)"/>
       <use xlink:href="#DejaVuSans-30" transform="translate(127.246094 0)"/>
       <use xlink:href="#DejaVuSans-30" transform="translate(190.869141 0)"/>
      </g>
     </g>
    </g>
    <g id="xtick_3">
     <g id="line2d_5">
      <path d="M 226.811779 143.08 
L 226.811779 27.24 
" clip-path="url(#p0fa5946dbc)" style="fill: none; stroke: #b0b0b0; stroke-opacity: 0.3; stroke-width: 0.8; stroke-linecap: square"/>
     </g>
     <g id="line2d_6">
      <g>
       <use xlink:href="#m0f2d320b6b" x="226.811779" y="143.08" style="stroke: #000000; stroke-width: 0.8"/>
      </g>
     </g>
     <g id="text_3">
      <!-- 7500 -->
      <g transform="translate(214.086779 157.678438) scale(0.1 -0.1)">
       <defs>
        <path id="DejaVuSans-37" d="M 525 4666 
L 3525 4666 
L 3525 4397 
L 1831 0 
L 1172 0 
L 2766 4134 
L 525 4134 
L 525 4666 
z
" transform="scale(0.015625)"/>
       </defs>
       <use xlink:href="#DejaVuSans-37"/>
       <use xlink:href="#DejaVuSans-35" transform="translate(63.623047 0)"/>
       <use xlink:href="#DejaVuSans-30" transform="translate(127.246094 0)"/>
       <use xlink:href="#DejaVuSans-30" transform="translate(190.869141 0)"/>
      </g>
     </g>
    </g>
    <g id="xtick_4">
     <g id="line2d_7">
      <path d="M 284.954085 143.08 
L 284.954085 27.24 
" clip-path="url(#p0fa5946dbc)" style="fill: none; stroke: #b0b0b0; stroke-opacity: 0.3; stroke-width: 0.8; stroke-linecap: square"/>
     </g>
     <g id="line2d_8">
      <g>
       <use xlink:href="#m0f2d320b6b" x="284.954085" y="143.08" style="stroke: #000000; stroke-width: 0.8"/>
      </g>
     </g>
     <g id="text_4">
      <!-- 10000 -->
      <g transform="translate(269.047835 157.678438) scale(0.1 -0.1)">
       <defs>
        <path id="DejaVuSans-31" d="M 794 531 
L 1825 531 
L 1825 4091 
L 703 3866 
L 703 4441 
L 1819 4666 
L 2450 4666 
L 2450 531 
L 3481 531 
L 3481 0 
L 794 0 
L 794 531 
z
" transform="scale(0.015625)"/>
       </defs>
       <use xlink:href="#DejaVuSans-31"/>
       <use xlink:href="#DejaVuSans-30" transform="translate(63.623047 0)"/>
       <use xlink:href="#DejaVuSans-30" transform="translate(127.246094 0)"/>
       <use xlink:href="#DejaVuSans-30" transform="translate(190.869141 0)"/>
       <use xlink:href="#DejaVuSans-30" transform="translate(254.492188 0)"/>
      </g>
     </g>
    </g>
    <g id="xtick_5">
     <g id="line2d_9">
      <path d="M 343.096391 143.08 
L 343.096391 27.24 
" clip-path="url(#p0fa5946dbc)" style="fill: none; stroke: #b0b0b0; stroke-opacity: 0.3; stroke-width: 0.8; stroke-linecap: square"/>
     </g>
     <g id="line2d_10">
      <g>
       <use xlink:href="#m0f2d320b6b" x="343.096391" y="143.08" style="stroke: #000000; stroke-width: 0.8"/>
      </g>
     </g>
     <g id="text_5">
      <!-- 12500 -->
      <g transform="translate(327.190141 157.678438) scale(0.1 -0.1)">
       <use xlink:href="#DejaVuSans-31"/>
       <use xlink:href="#DejaVuSans-32" transform="translate(63.623047 0)"/>
       <use xlink:href="#DejaVuSans-35" transform="translate(127.246094 0)"/>
       <use xlink:href="#DejaVuSans-30" transform="translate(190.869141 0)"/>
       <use xlink:href="#DejaVuSans-30" transform="translate(254.492188 0)"/>
      </g>
     </g>
    </g>
    <g id="xtick_6">
     <g id="line2d_11">
      <path d="M 401.238697 143.08 
L 401.238697 27.24 
" clip-path="url(#p0fa5946dbc)" style="fill: none; stroke: #b0b0b0; stroke-opacity: 0.3; stroke-width: 0.8; stroke-linecap: square"/>
     </g>
     <g id="line2d_12">
      <g>
       <use xlink:href="#m0f2d320b6b" x="401.238697" y="143.08" style="stroke: #000000; stroke-width: 0.8"/>
      </g>
     </g>
     <g id="text_6">
      <!-- 15000 -->
      <g transform="translate(385.332447 157.678438) scale(0.1 -0.1)">
       <use xlink:href="#DejaVuSans-31"/>
       <use xlink:href="#DejaVuSans-35" transform="translate(63.623047 0)"/>
       <use xlink:href="#DejaVuSans-30" transform="translate(127.246094 0)"/>
       <use xlink:href="#DejaVuSans-30" transform="translate(190.869141 0)"/>
       <use xlink:href="#DejaVuSans-30" transform="translate(254.492188 0)"/>
      </g>
     </g>
    </g>
    <g id="xtick_7">
     <g id="line2d_13">
      <path d="M 459.381003 143.08 
L 459.381003 27.24 
" clip-path="url(#p0fa5946dbc)" style="fill: none; stroke: #b0b0b0; stroke-opacity: 0.3; stroke-width: 0.8; stroke-linecap: square"/>
     </g>
     <g id="line2d_14">
      <g>
       <use xlink:href="#m0f2d320b6b" x="459.381003" y="143.08" style="stroke: #000000; stroke-width: 0.8"/>
      </g>
     </g>
     <g id="text_7">
      <!-- 17500 -->
      <g transform="translate(443.474753 157.678438) scale(0.1 -0.1)">
       <use xlink:href="#DejaVuSans-31"/>
       <use xlink:href="#DejaVuSans-37" transform="translate(63.623047 0)"/>
       <use xlink:href="#DejaVuSans-35" transform="translate(127.246094 0)"/>
       <use xlink:href="#DejaVuSans-30" transform="translate(190.869141 0)"/>
       <use xlink:href="#DejaVuSans-30" transform="translate(254.492188 0)"/>
      </g>
     </g>
    </g>
    <g id="xtick_8">
     <g id="line2d_15">
      <path d="M 517.523309 143.08 
L 517.523309 27.24 
" clip-path="url(#p0fa5946dbc)" style="fill: none; stroke: #b0b0b0; stroke-opacity: 0.3; stroke-width: 0.8; stroke-linecap: square"/>
     </g>
     <g id="line2d_16">
      <g>
       <use xlink:href="#m0f2d320b6b" x="517.523309" y="143.08" style="stroke: #000000; stroke-width: 0.8"/>
      </g>
     </g>
     <g id="text_8">
      <!-- 20000 -->
      <g transform="translate(501.617059 157.678438) scale(0.1 -0.1)">
       <use xlink:href="#DejaVuSans-32"/>
       <use xlink:href="#DejaVuSans-30" transform="translate(63.623047 0)"/>
       <use xlink:href="#DejaVuSans-30" transform="translate(127.246094 0)"/>
       <use xlink:href="#DejaVuSans-30" transform="translate(190.869141 0)"/>
       <use xlink:href="#DejaVuSans-30" transform="translate(254.492188 0)"/>
      </g>
     </g>
    </g>
    <g id="text_9">
     <!-- Fréquence (Hz) -->
     <g transform="translate(271.203125 171.756563) scale(0.1 -0.1)">
      <defs>
       <path id="DejaVuSans-46" d="M 628 4666 
L 3309 4666 
L 3309 4134 
L 1259 4134 
L 1259 2759 
L 3109 2759 
L 3109 2228 
L 1259 2228 
L 1259 0 
L 628 0 
L 628 4666 
z
" transform="scale(0.015625)"/>
       <path id="DejaVuSans-72" d="M 2631 2963 
Q 2534 3019 2420 3045 
Q 2306 3072 2169 3072 
Q 1681 3072 1420 2755 
Q 1159 2438 1159 1844 
L 1159 0 
L 581 0 
L 581 3500 
L 1159 3500 
L 1159 2956 
Q 1341 3275 1631 3429 
Q 1922 3584 2338 3584 
Q 2397 3584 2469 3576 
Q 2541 3569 2628 3553 
L 2631 2963 
z
" transform="scale(0.015625)"/>
       <path id="DejaVuSans-e9" d="M 3597 1894 
L 3597 1613 
L 953 1613 
Q 991 1019 1311 708 
Q 1631 397 2203 397 
Q 2534 397 2845 478 
Q 3156 559 3463 722 
L 3463 178 
Q 3153 47 2828 -22 
Q 2503 -91 2169 -91 
Q 1331 -91 842 396 
Q 353 884 353 1716 
Q 353 2575 817 3079 
Q 1281 3584 2069 3584 
Q 2775 3584 3186 3129 
Q 3597 2675 3597 1894 
z
M 3022 2063 
Q 3016 2534 2758 2815 
Q 2500 3097 2075 3097 
Q 1594 3097 1305 2825 
Q 1016 2553 972 2059 
L 3022 2063 
z
M 2466 5119 
L 3088 5119 
L 2070 3944 
L 1591 3944 
L 2466 5119 
z
" transform="scale(0.015625)"/>
       <path id="DejaVuSans-71" d="M 947 1747 
Q 947 1113 1208 752 
Q 1469 391 1925 391 
Q 2381 391 2643 752 
Q 2906 1113 2906 1747 
Q 2906 2381 2643 2742 
Q 2381 3103 1925 3103 
Q 1469 3103 1208 2742 
Q 947 2381 947 1747 
z
M 2906 525 
Q 2725 213 2448 61 
Q 2172 -91 1784 -91 
Q 1150 -91 751 415 
Q 353 922 353 1747 
Q 353 2572 751 3078 
Q 1150 3584 1784 3584 
Q 2172 3584 2448 3432 
Q 2725 3281 2906 2969 
L 2906 3500 
L 3481 3500 
L 3481 -1331 
L 2906 -1331 
L 2906 525 
z
" transform="scale(0.015625)"/>
       <path id="DejaVuSans-75" d="M 544 1381 
L 544 3500 
L 1119 3500 
L 1119 1403 
Q 1119 906 1312 657 
Q 1506 409 1894 409 
Q 2359 409 2629 706 
Q 2900 1003 2900 1516 
L 2900 3500 
L 3475 3500 
L 3475 0 
L 2900 0 
L 2900 538 
Q 2691 219 2414 64 
Q 2138 -91 1772 -91 
Q 1169 -91 856 284 
Q 544 659 544 1381 
z
M 1991 3584 
L 1991 3584 
z
" transform="scale(0.015625)"/>
       <path id="DejaVuSans-65" d="M 3597 1894 
L 3597 1613 
L 953 1613 
Q 991 1019 1311 708 
Q 1631 397 2203 397 
Q 2534 397 2845 478 
Q 3156 559 3463 722 
L 3463 178 
Q 3153 47 2828 -22 
Q 2503 -91 2169 -91 
Q 1331 -91 842 396 
Q 353 884 353 1716 
Q 353 2575 817 3079 
Q 1281 3584 2069 3584 
Q 2775 3584 3186 3129 
Q 3597 2675 3597 1894 
z
M 3022 2063 
Q 3016 2534 2758 2815 
Q 2500 3097 2075 3097 
Q 1594 3097 1305 2825 
Q 1016 2553 972 2059 
L 3022 2063 
z
" transform="scale(0.015625)"/>
       <path id="DejaVuSans-6e" d="M 3513 2113 
L 3513 0 
L 2938 0 
L 2938 2094 
Q 2938 2591 2744 2837 
Q 2550 3084 2163 3084 
Q 1697 3084 1428 2787 
Q 1159 2491 1159 1978 
L 1159 0 
L 581 0 
L 581 3500 
L 1159 3500 
L 1159 2956 
Q 1366 3272 1645 3428 
Q 1925 3584 2291 3584 
Q 2894 3584 3203 3211 
Q 3513 2838 3513 2113 
z
" transform="scale(0.015625)"/>
       <path id="DejaVuSans-63" d="M 3122 3366 
L 3122 2828 
Q 2878 2963 2633 3030 
Q 2388 3097 2138 3097 
Q 1578 3097 1268 2742 
Q 959 2388 959 1747 
Q 959 1106 1268 751 
Q 1578 397 2138 397 
Q 2388 397 2633 464 
Q 2878 531 3122 666 
L 3122 134 
Q 2881 22 2623 -34 
Q 2366 -91 2075 -91 
Q 1284 -91 818 406 
Q 353 903 353 1747 
Q 353 2603 823 3093 
Q 1294 3584 2113 3584 
Q 2378 3584 2631 3529 
Q 2884 3475 3122 3366 
z
" transform="scale(0.015625)"/>
       <path id="DejaVuSans-20" transform="scale(0.015625)"/>
       <path id="DejaVuSans-28" d="M 1984 4856 
Q 1566 4138 1362 3434 
Q 1159 2731 1159 2009 
Q 1159 1288 1364 580 
Q 1569 -128 1984 -844 
L 1484 -844 
Q 1016 -109 783 600 
Q 550 1309 550 2009 
Q 550 2706 781 3412 
Q 1013 4119 1484 4856 
L 1984 4856 
z
" transform="scale(0.015625)"/>
       <path id="DejaVuSans-48" d="M 628 4666 
L 1259 4666 
L 1259 2753 
L 3553 2753 
L 3553 4666 
L 4184 4666 
L 4184 0 
L 3553 0 
L 3553 2222 
L 1259 2222 
L 1259 0 
L 628 0 
L 628 4666 
z
" transform="scale(0.015625)"/>
       <path id="DejaVuSans-7a" d="M 353 3500 
L 3084 3500 
L 3084 2975 
L 922 459 
L 3084 459 
L 3084 0 
L 275 0 
L 275 525 
L 2438 3041 
L 353 3041 
L 353 3500 
z
" transform="scale(0.015625)"/>
       <path id="DejaVuSans-29" d="M 513 4856 
L 1013 4856 
Q 1481 4119 1714 3412 
Q 1947 2706 1947 2009 
Q 1947 1309 1714 600 
Q 1481 -109 1013 -844 
L 513 -844 
Q 928 -128 1133 580 
Q 1338 1288 1338 2009 
Q 1338 2731 1133 3434 
Q 928 4138 513 4856 
z
" transform="scale(0.015625)"/>
      </defs>
      <use xlink:href="#DejaVuSans-46"/>
      <use xlink:href="#DejaVuSans-72" transform="translate(50.269531 0)"/>
      <use xlink:href="#DejaVuSans-e9" transform="translate(89.132812 0)"/>
      <use xlink:href="#DejaVuSans-71" transform="translate(150.65625 0)"/>
      <use xlink:href="#DejaVuSans-75" transform="translate(214.132812 0)"/>
      <use xlink:href="#DejaVuSans-65" transform="translate(277.511719 0)"/>
      <use xlink:href="#DejaVuSans-6e" transform="translate(339.035156 0)"/>
      <use xlink:href="#DejaVuSans-63" transform="translate(402.414062 0)"/>
      <use xlink:href="#DejaVuSans-65" transform="translate(457.394531 0)"/>
      <use xlink:href="#DejaVuSans-20" transform="translate(518.917969 0)"/>
      <use xlink:href="#DejaVuSans-28" transform="translate(550.705078 0)"/>
      <use xlink:href="#DejaVuSans-48" transform="translate(589.71875 0)"/>
      <use xlink:href="#DejaVuSans-7a" transform="translate(664.914062 0)"/>
      <use xlink:href="#DejaVuSans-29" transform="translate(717.404297 0)"/>
     </g>
    </g>
   </g>
   <g id="matplotlib.axis_2">
    <g id="ytick_1">
     <g id="line2d_17">
      <path d="M 52.85 116.582116 
L 565.2 116.582116 
" clip-path="url(#p0fa5946dbc)" style="fill: none; stroke: #b0b0b0; stroke-opacity: 0.3; stroke-width: 0.8; stroke-linecap: square"/>
     </g>
     <g id="line2d_18">
      <defs>
       <path id="m5281f369c1" d="M 0 0 
L -3.5 0 
" style="stroke: #000000; stroke-width: 0.8"/>
      </defs>
      <g>
       <use xlink:href="#m5281f369c1" x="52.85" y="116.582116" style="stroke: #000000; stroke-width: 0.8"/>
      </g>
     </g>
     <g id="text_10">
      <!-- −40 -->
      <g transform="translate(24.745313 120.381335) scale(0.1 -0.1)">
       <defs>
        <path id="DejaVuSans-2212" d="M 678 2272 
L 4684 2272 
L 4684 1741 
L 678 1741 
L 678 2272 
z
" transform="scale(0.015625)"/>
        <path id="DejaVuSans-34" d="M 2419 4116 
L 825 1625 
L 2419 1625 
L 2419 4116 
z
M 2253 4666 
L 3047 4666 
L 3047 1625 
L 3713 1625 
L 3713 1100 
L 3047 1100 
L 3047 0 
L 2419 0 
L 2419 1100 
L 313 1100 
L 313 1709 
L 2253 4666 
z
" transform="scale(0.015625)"/>
       </defs>
       <use xlink:href="#DejaVuSans-2212"/>
       <use xlink:href="#DejaVuSans-34" transform="translate(83.789062 0)"/>
       <use xlink:href="#DejaVuSans-30" transform="translate(147.412109 0)"/>
      </g>
     </g>
    </g>
    <g id="ytick_2">
     <g id="line2d_19">
      <path d="M 52.85 80.509123 
L 565.2 80.509123 
" clip-path="url(#p0fa5946dbc)" style="fill: none; stroke: #b0b0b0; stroke-opacity: 0.3; stroke-width: 0.8; stroke-linecap: square"/>
     </g>
     <g id="line2d_20">
      <g>
       <use xlink:href="#m5281f369c1" x="52.85" y="80.509123" style="stroke: #000000; stroke-width: 0.8"/>
      </g>
     </g>
     <g id="text_11">
      <!-- −20 -->
      <g transform="translate(24.745313 84.308341) scale(0.1 -0.1)">
       <use xlink:href="#DejaVuSans-2212"/>
       <use xlink:href="#DejaVuSans-32" transform="translate(83.789062 0)"/>
       <use xlink:href="#DejaVuSans-30" transform="translate(147.412109 0)"/>
      </g>
     </g>
    </g>
    <g id="ytick_3">
     <g id="line2d_21">
      <path d="M 52.85 44.436129 
L 565.2 44.436129 
" clip-path="url(#p0fa5946dbc)" style="fill: none; stroke: #b0b0b0; stroke-opacity: 0.3; stroke-width: 0.8; stroke-linecap: square"/>
     </g>
     <g id="line2d_22">
      <g>
       <use xlink:href="#m5281f369c1" x="52.85" y="44.436129" style="stroke: #000000; stroke-width: 0.8"/>
      </g>
     </g>
     <g id="text_12">
      <!-- 0 -->
      <g transform="translate(39.4875 48.235348) scale(0.1 -0.1)">
       <use xlink:href="#DejaVuSans-30"/>
      </g>
     </g>
    </g>
    <g id="text_13">
     <!-- Amplitude (dB) -->
     <g transform="translate(18.665625 122.877969) rotate(-90) scale(0.1 -0.1)">
      <defs>
       <path id="DejaVuSans-41" d="M 2188 4044 
L 1331 1722 
L 3047 1722 
L 2188 4044 
z
M 1831 4666 
L 2547 4666 
L 4325 0 
L 3669 0 
L 3244 1197 
L 1141 1197 
L 716 0 
L 50 0 
L 1831 4666 
z
" transform="scale(0.015625)"/>
       <path id="DejaVuSans-6d" d="M 3328 2828 
Q 3544 3216 3844 3400 
Q 4144 3584 4550 3584 
Q 5097 3584 5394 3201 
Q 5691 2819 5691 2113 
L 5691 0 
L 5113 0 
L 5113 2094 
Q 5113 2597 4934 2840 
Q 4756 3084 4391 3084 
Q 3944 3084 3684 2787 
Q 3425 2491 3425 1978 
L 3425 0 
L 2847 0 
L 2847 2094 
Q 2847 2600 2669 2842 
Q 2491 3084 2119 3084 
Q 1678 3084 1418 2786 
Q 1159 2488 1159 1978 
L 1159 0 
L 581 0 
L 581 3500 
L 1159 3500 
L 1159 2956 
Q 1356 3278 1631 3431 
Q 1906 3584 2284 3584 
Q 2666 3584 2933 3390 
Q 3200 3197 3328 2828 
z
" transform="scale(0.015625)"/>
       <path id="DejaVuSans-70" d="M 1159 525 
L 1159 -1331 
L 581 -1331 
L 581 3500 
L 1159 3500 
L 1159 2969 
Q 1341 3281 1617 3432 
Q 1894 3584 2278 3584 
Q 2916 3584 3314 3078 
Q 3713 2572 3713 1747 
Q 3713 922 3314 415 
Q 2916 -91 2278 -91 
Q 1894 -91 1617 61 
Q 1341 213 1159 525 
z
M 3116 1747 
Q 3116 2381 2855 2742 
Q 2594 3103 2138 3103 
Q 1681 3103 1420 2742 
Q 1159 2381 1159 1747 
Q 1159 1113 1420 752 
Q 1681 391 2138 391 
Q 2594 391 2855 752 
Q 3116 1113 3116 1747 
z
" transform="scale(0.015625)"/>
       <path id="DejaVuSans-6c" d="M 603 4863 
L 1178 4863 
L 1178 0 
L 603 0 
L 603 4863 
z
" transform="scale(0.015625)"/>
       <path id="DejaVuSans-69" d="M 603 3500 
L 1178 3500 
L 1178 0 
L 603 0 
L 603 3500 
z
M 603 4863 
L 1178 4863 
L 1178 4134 
L 603 4134 
L 603 4863 
z
" transform="scale(0.015625)"/>
       <path id="DejaVuSans-74" d="M 1172 4494 
L 1172 3500 
L 2356 3500 
L 2356 3053 
L 1172 3053 
L 1172 1153 
Q 1172 725 1289 603 
Q 1406 481 1766 481 
L 2356 481 
L 2356 0 
L 1766 0 
Q 1100 0 847 248 
Q 594 497 594 1153 
L 594 3053 
L 172 3053 
L 172 3500 
L 594 3500 
L 594 4494 
L 1172 4494 
z
" transform="scale(0.015625)"/>
       <path id="DejaVuSans-64" d="M 2906 2969 
L 2906 4863 
L 3481 4863 
L 3481 0 
L 2906 0 
L 2906 525 
Q 2725 213 2448 61 
Q 2172 -91 1784 -91 
Q 1150 -91 751 415 
Q 353 922 353 1747 
Q 353 2572 751 3078 
Q 1150 3584 1784 3584 
Q 2172 3584 2448 3432 
Q 2725 3281 2906 2969 
z
M 947 1747 
Q 947 1113 1208 752 
Q 1469 391 1925 391 
Q 2381 391 2643 752 
Q 2906 1113 2906 1747 
Q 2906 2381 2643 2742 
Q 2381 3103 1925 3103 
Q 1469 3103 1208 2742 
Q 947 2381 947 1747 
z
" transform="scale(0.015625)"/>
       <path id="DejaVuSans-42" d="M 1259 2228 
L 1259 519 
L 2272 519 
Q 2781 519 3026 730 
Q 3272 941 3272 1375 
Q 3272 1813 3026 2020 
Q 2781 2228 2272 2228 
L 1259 2228 
z
M 1259 4147 
L 1259 2741 
L 2194 2741 
Q 2656 2741 2882 2914 
Q 3109 3088 3109 3444 
Q 3109 3797 2882 3972 
Q 2656 4147 2194 4147 
L 1259 4147 
z
M 628 4666 
L 2241 4666 
Q 2963 4666 3353 4366 
Q 3744 4066 3744 3513 
Q 3744 3084 3544 2831 
Q 3344 2578 2956 2516 
Q 3422 2416 3680 2098 
Q 3938 1781 3938 1306 
Q 3938 681 3513 340 
Q 3088 0 2303 0 
L 628 0 
L 628 4666 
z
" transform="scale(0.015625)"/>
      </defs>
      <use xlink:href="#DejaVuSans-41"/>
      <use xlink:href="#DejaVuSans-6d" transform="translate(68.408203 0)"/>
      <use xlink:href="#DejaVuSans-70" transform="translate(165.820312 0)"/>
      <use xlink:href="#DejaVuSans-6c" transform="translate(229.296875 0)"/>
      <use xlink:href="#DejaVuSans-69" transform="translate(257.080078 0)"/>
      <use xlink:href="#DejaVuSans-74" transform="translate(284.863281 0)"/>
      <use xlink:href="#DejaVuSans-75" transform="translate(324.072266 0)"/>
      <use xlink:href="#DejaVuSans-64" transform="translate(387.451172 0)"/>
      <use xlink:href="#DejaVuSans-65" transform="translate(450.927734 0)"/>
      <use xlink:href="#DejaVuSans-20" transform="translate(512.451172 0)"/>
      <use xlink:href="#DejaVuSans-28" transform="translate(544.238281 0)"/>
      <use xlink:href="#DejaVuSans-64" transform="translate(583.251953 0)"/>
      <use xlink:href="#DejaVuSans-42" transform="translate(646.728516 0)"/>
      <use xlink:href="#DejaVuSans-29" transform="translate(715.332031 0)"/>
     </g>
    </g>
   </g>
   <g id="line2d_23">
    <path d="M 52.823058 36.978928 
L 52.885658 33.501297 
L 52.948257 35.692652 
L 53.010857 44.605891 
L 53.073456 82.715037 
L 53.198655 34.478654 
L 53.261255 33.993168 
L 53.323854 39.108422 
L 53.386454 57.373607 
L 53.449053 50.067078 
L 53.574252 33.57674 
L 53.636852 35.869461 
L 53.762051 71.844478 
L 53.88725 34.353284 
L 53.949849 34.118232 
L 54.012449 39.679459 
L 54.075048 60.668693 
L 54.137648 48.385744 
L 54.262847 33.575361 
L 54.325446 36.210328 
L 54.450645 65.514438 
L 54.575844 34.180312 
L 54.638444 34.288646 
L 54.701043 40.385366 
L 54.763643 64.960331 
L 54.826242 46.875975 
L 54.951441 33.586565 
L 55.014041 36.62043 
L 55.13924 61.041777 
L 55.264439 34.017469 
L 55.327038 34.496284 
L 55.389638 41.183297 
L 55.452237 70.970203 
L 55.640036 33.621507 
L 55.702635 37.084565 
L 55.827834 57.590664 
L 55.953033 33.876853 
L 56.015633 34.739269 
L 56.078232 42.068463 
L 56.140832 80.932116 
L 56.32863 33.683394 
L 56.39123 37.599861 
L 56.516429 54.789283 
L 56.641628 33.762298 
L 56.704227 35.017557 
L 56.766827 43.045686 
L 56.829426 115.747422 
L 56.954625 35.001182 
L 57.017225 33.773647 
L 57.079824 38.167171 
L 57.142424 54.244059 
L 57.205023 52.439392 
L 57.330222 33.675269 
L 57.392822 35.331878 
L 57.455421 44.124575 
L 57.518021 84.741042 
L 57.64322 34.719462 
L 57.705819 33.893164 
L 57.768419 38.789095 
L 57.831018 56.914445 
L 57.893618 50.422701 
L 58.018817 33.61639 
L 58.081416 35.683417 
L 58.144016 45.318769 
L 58.206615 72.845586 
L 58.394414 34.042703 
L 58.457013 39.469428 
L 58.519613 60.176956 
L 58.582212 48.662941 
L 58.707411 33.585969 
L 58.770011 36.073724 
L 58.89521 66.180401 
L 59.083009 34.223026 
L 59.145608 40.213047 
L 59.208208 64.345917 
L 59.270807 47.108062 
L 59.396006 33.58421 
L 59.458606 36.504684 
L 59.583805 61.540522 
L 59.709004 34.066835 
L 59.771603 34.43497 
L 59.834203 41.025999 
L 59.896802 70.091082 
L 60.084601 33.611307 
L 60.1472 36.978545 
L 60.272399 57.988675 
L 60.397598 33.91157 
L 60.460198 34.679485 
L 60.522797 41.91571 
L 60.585397 79.319096 
L 60.773195 33.667495 
L 60.835795 37.497955 
L 60.960994 55.119629 
L 61.086193 33.786581 
L 61.148792 34.957667 
L 61.211392 42.891325 
L 61.273991 104.888177 
L 61.39919 35.061484 
L 61.46179 33.753081 
L 61.524389 38.066026 
L 61.586989 53.935415 
L 61.649588 52.720926 
L 61.774787 33.691473 
L 61.837387 35.270785 
L 61.899986 43.964201 
L 61.962586 87.071965 
L 62.087785 34.769767 
L 62.150384 33.868458 
L 62.212984 38.68642 
L 62.275583 56.552118 
L 62.338183 50.667196 
L 62.463382 33.62594 
L 62.525981 35.620304 
L 62.588581 45.148621 
L 62.65118 73.893604 
L 62.838979 34.014125 
L 62.901578 39.363461 
L 62.964178 59.733272 
L 63.026777 48.878244 
L 63.151976 33.58978 
L 63.214576 36.007924 
L 63.339775 66.856565 
L 63.527573 34.190694 
L 63.590173 40.102282 
L 63.652772 63.769577 
L 63.715372 47.29967 
L 63.840571 33.58289 
L 63.90317 36.435614 
L 64.028369 62.039228 
L 64.153568 34.095391 
L 64.216168 34.398908 
L 64.278767 40.909021 
L 64.341367 69.265255 
L 64.529165 33.605268 
L 64.591765 36.905655 
L 64.716964 58.383124 
L 64.842163 33.934425 
L 64.904762 34.639652 
L 64.967362 41.791081 
L 65.029961 77.859114 
L 65.21776 33.65702 
L 65.280359 37.4207 
L 65.405558 55.445216 
L 65.530757 33.804195 
L 65.593357 34.913972 
L 65.655956 42.757483 
L 65.718556 98.536432 
L 65.843755 35.107738 
L 65.906354 33.738357 
L 65.968954 37.98384 
L 66.031553 53.641762 
L 66.094153 52.99744 
L 66.219352 33.704193 
L 66.281951 35.223093 
L 66.344551 43.819358 
L 66.40715 89.80975 
L 66.53235 34.810327 
L 66.594949 33.849606 
L 66.657549 38.598695 
L 66.720148 56.203926 
L 66.782748 50.906816 
L 66.907947 33.634037 
L 66.970546 35.568444 
L 67.033146 44.990641 
L 67.095745 75.014612 
L 67.220944 34.547444 
L 67.283544 33.991208 
L 67.346143 39.269524 
L 67.408743 59.305667 
L 67.471342 49.088997 
L 67.596541 33.593458 
L 67.659141 35.951683 
L 67.78434 67.560731 
L 67.972138 34.163733 
L 68.034738 40.001369 
L 68.097337 63.216107 
L 68.159937 47.487123 
L 68.285136 33.582305 
L 68.347735 36.37474 
L 68.472934 62.5517 
L 68.598133 34.120826 
L 68.660733 34.367883 
L 68.723332 40.800247 
L 68.785932 68.482198 
L 68.97373 33.600536 
L 69.03633 36.83985 
L 69.161529 58.785124 
L 69.286728 33.955294 
L 69.349327 34.604511 
L 69.411927 41.673402 
L 69.474526 76.524368 
L 69.662325 33.64822 
L 69.724924 37.349615 
L 69.850123 55.77515 
L 69.975322 33.820669 
L 70.037922 34.874627 
L 70.100521 42.629644 
L 70.163121 94.02989 
L 70.28832 35.15094 
L 70.350919 33.725539 
L 70.413519 37.907067 
L 70.476118 53.356035 
L 70.538718 53.276484 
L 70.663917 33.716412 
L 70.726516 35.179425 
L 70.789116 43.679823 
L 70.851715 93.129172 
L 70.976914 34.848634 
L 71.039514 33.83279 
L 71.102113 38.515754 
L 71.164713 55.865174 
L 71.227312 51.147877 
L 71.352511 33.642113 
L 71.415111 35.520298 
L 71.47771 44.837494 
L 71.54031 76.221605 
L 71.665509 34.581066 
L 71.728108 33.970391 
L 71.790708 39.179851 
L 71.853307 58.890782 
L 71.915907 49.300516 
L 72.041106 33.59748 
L 72.103705 35.898869 
L 72.228904 68.29744 
L 72.416703 34.138885 
L 72.479302 39.904294 
L 72.541902 62.682481 
L 72.604501 47.674923 
L 72.7297 33.582338 
L 72.7923 36.317028 
L 72.917499 63.080805 
L 73.042698 34.145587 
L 73.105297 34.338952 
L 73.167897 40.69497 
L 73.230496 67.737064 
L 73.418295 33.596624 
L 73.480894 36.776966 
L 73.606093 59.196964 
L 73.731292 33.975831 
L 73.793892 34.571417 
L 73.856491 41.558958 
L 73.919091 75.294856 
L 74.10689 33.640388 
L 74.169489 37.281233 
L 74.294688 56.111422 
L 74.419887 33.837088 
L 74.482487 34.837267 
L 74.545086 42.504855 
L 74.607686 90.534416 
L 74.732885 35.193396 
L 74.795484 33.713792 
L 74.858084 37.832803 
L 74.983283 53.559844 
L 75.108482 33.728802 
L 75.171081 35.137666 
L 75.233681 43.543234 
L 75.29628 97.346399 
L 75.421479 34.886461 
L 75.484079 33.817115 
L 75.546678 38.435154 
L 75.609278 55.534459 
L 75.671877 51.391997 
L 75.797076 33.650542 
L 75.859676 35.473979 
L 75.922275 44.687277 
L 75.984875 77.5294 
L 76.110074 34.614437 
L 76.172673 33.950755 
L 76.235273 39.092374 
L 76.297872 58.487265 
L 76.360472 49.514279 
L 76.485671 33.601999 
L 76.54827 35.847797 
L 76.673469 69.070424 
L 76.861268 34.115237 
L 76.923867 39.8093 
L 76.986467 62.166929 
L 77.049066 47.864421 
L 77.174265 33.582982 
L 77.236865 36.26097 
L 77.362064 63.628276 
L 77.487263 34.170465 
L 77.549862 34.311218 
L 77.612462 40.591688 
L 77.675061 67.02612 
L 77.86286 33.593409 
L 77.925459 36.715649 
L 78.050658 59.619772 
L 78.175857 33.996629 
L 78.238457 34.539503 
L 78.301056 41.446456 
L 78.363656 74.155083 
L 78.551454 33.633316 
L 78.614054 37.214335 
L 78.739253 56.454919 
L 78.864452 33.853891 
L 78.927051 34.801056 
L 78.989651 42.381996 
L 79.05225 87.678411 
L 79.240049 33.702848 
L 79.302648 37.759944 
L 79.427847 53.848291 
L 79.553046 33.741677 
L 79.615646 35.097014 
L 79.678245 43.408612 
L 79.740845 103.134496 
L 79.866044 34.924567 
L 79.928643 33.802265 
L 79.991243 38.355887 
L 80.053842 55.210975 
L 80.116442 51.639885 
L 80.241641 33.659539 
L 80.30424 35.428716 
L 80.36684 44.539125 
L 80.429439 78.956523 
L 80.554638 34.648201 
L 80.617238 33.93195 
L 80.679837 39.006169 
L 80.742437 58.094167 
L 80.805036 49.730954 
L 80.930235 33.607151 
L 80.992835 35.79772 
L 81.118034 69.883632 
L 81.305832 34.092407 
L 81.368432 39.715525 
L 81.431032 61.667995 
L 81.493631 48.056261 
L 81.61883 33.584305 
L 81.68143 36.20584 
L 81.806629 64.195659 
L 81.931828 34.195933 
L 81.994427 34.284276 
L 82.057027 40.48959 
L 82.119626 66.346152 
L 82.182226 46.570459 
L 82.307425 33.590906 
L 82.370024 36.655185 
L 82.495223 60.054406 
L 82.620422 34.018098 
L 82.683022 34.508338 
L 82.745621 41.335123 
L 82.808221 73.092664 
L 82.996019 33.626969 
L 83.058619 37.14821 
L 83.183818 56.806248 
L 83.309017 33.871435 
L 83.371616 34.765534 
L 83.434216 42.260318 
L 83.496815 85.263528 
L 83.684614 33.692623 
L 83.747213 37.687773 
L 83.872412 54.142335 
L 83.997611 33.75535 
L 84.060211 35.056977 
L 84.12281 43.275214 
L 84.18541 112.40978 
L 84.310609 34.963576 
L 84.373208 33.788112 
L 84.435808 38.277217 
L 84.498407 54.893963 
L 84.561007 51.892022 
L 84.686206 33.669378 
L 84.748805 35.383973 
L 84.811405 44.39229 
L 84.874004 80.526919 
L 84.999203 34.68297 
L 85.061803 33.913797 
L 85.124402 38.920467 
L 85.187002 57.710528 
L 85.249601 49.951032 
L 85.3748 33.613175 
L 85.4374 35.748048 
L 85.562599 70.741493 
L 85.750397 34.070162 
L 85.812997 39.622158 
L 85.875596 61.184218 
L 85.938196 48.250971 
L 86.063395 33.586512 
L 86.125994 36.15098 
L 86.251193 64.784521 
L 86.376392 34.222599 
L 86.438992 34.257822 
L 86.501591 40.3878 
L 86.564191 65.694152 
L 86.62679 46.744562 
L 86.751989 33.589275 
L 86.814589 36.594831 
L 86.939788 60.501669 
L 87.064987 34.040855 
L 87.127586 34.477534 
L 87.190186 41.223999 
L 87.252785 72.097333 
L 87.440584 33.621459 
L 87.503183 37.082003 
L 87.628382 57.165969 
L 87.753581 33.89035 
L 87.816181 34.730208 
L 87.87878 42.13875 
L 87.94138 83.171041 
L 88.129178 33.683169 
L 88.191778 37.615294 
L 88.316977 54.442487 
L 88.442176 33.770466 
L 88.504775 35.016922 
L 88.567375 43.141838 
L 88.629974 137.814545 
L 88.755173 35.004604 
L 88.817773 33.774622 
L 88.880373 38.197968 
L 88.942972 54.582207 
L 89.005572 52.148972 
L 89.130771 33.680716 
L 89.19337 35.338941 
L 89.25597 44.245398 
L 89.318569 82.272294 
L 89.443768 34.719985 
L 89.506368 33.896149 
L 89.568967 38.833862 
L 89.631567 57.334855 
L 89.694166 50.175209 
L 89.819365 33.62073 
L 89.881965 35.697741 
L 90.007164 71.649001 
L 90.194962 34.048194 
L 90.257562 39.527494 
L 90.320161 60.713547 
L 90.382761 48.449459 
L 90.50796 33.590252 
L 90.570559 36.095039 
L 90.695758 65.396462 
L 90.883557 34.231329 
L 90.946156 40.284234 
L 91.008756 65.066624 
L 91.071355 46.922429 
L 91.196554 33.589132 
L 91.259154 36.532822 
L 91.384353 60.962388 
L 91.509552 34.066695 
L 91.572151 34.446249 
L 91.634751 41.110504 
L 91.69735 71.159649 
L 91.885149 33.61732 
L 91.947748 37.013391 
L 92.072947 57.53482 
L 92.198146 33.912682 
L 92.260746 34.693783 
L 92.323345 42.014062 
L 92.385945 81.323001 
L 92.573743 33.674865 
L 92.636343 37.539413 
L 92.761542 54.749725 
L 92.886741 33.789366 
L 92.94934 34.974897 
L 93.01194 43.004374 
L 93.074539 119.827727 
L 93.199738 35.051707 
L 93.262338 33.761897 
L 93.324937 38.113972 
L 93.387537 54.271818 
L 93.450136 52.412252 
L 93.575335 33.696231 
L 93.637935 35.290692 
L 93.700534 44.093144 
L 93.763134 84.234954 
L 93.888333 34.764366 
L 93.950932 33.87862 
L 94.013532 38.740637 
L 94.076131 56.962238 
L 94.138731 50.405932 
L 94.26393 33.632872 
L 94.326529 35.642387 
L 94.389129 45.295044 
L 94.451728 72.611099 
L 94.639527 34.025274 
L 94.702126 39.423525 
L 94.764726 60.249526 
L 94.827325 48.655722 
L 94.952524 33.598976 
L 95.015124 36.031271 
L 95.140323 66.032683 
L 95.328121 34.202062 
L 95.390721 40.167326 
L 95.45332 64.454316 
L 95.51592 47.110697 
L 95.641119 33.594281 
L 95.703718 36.458549 
L 95.828917 61.437753 
L 95.954116 34.107406 
L 96.016716 34.408961 
L 96.079315 40.977216 
L 96.141915 70.262926 
L 96.329714 33.618498 
L 96.392313 36.924915 
L 96.517512 57.915958 
L 96.642711 33.955272 
L 96.705311 34.645178 
L 96.76791 41.858273 
L 96.83051 79.650156 
L 97.018308 33.671014 
L 97.080908 37.42909 
L 97.206107 55.072743 
L 97.331306 33.838081 
L 97.393905 34.907113 
L 97.456505 42.812732 
L 97.519104 106.508906 
L 97.644303 35.160432 
L 97.706903 33.749509 
L 97.769502 37.961251 
L 97.832102 53.904727 
L 97.894701 52.707531 
L 98.0199 33.762839 
L 98.0825 35.176644 
L 98.145099 43.822575 
L 98.207699 86.421575 
L 98.332898 34.950555 
L 98.395497 33.835995 
L 98.458097 38.445693 
L 98.520696 56.429349 
L 98.583296 50.768085 
L 98.708495 33.772629 
L 98.771094 35.179641 
L 98.833694 44.461089 
L 98.896293 73.611593 
L 99.021492 40.655852 
L 99.146691 44.320724 
L 99.209291 43.580745 
L 99.27189 44.614593 
L 99.33449 44.154849 
L 99.397089 44.109546 
L 99.459689 44.598009 
L 99.522288 44.126452 
L 99.584888 44.361053 
L 99.647487 44.494994 
L 99.710087 44.170709 
L 99.772686 44.486757 
L 99.835286 44.391086 
L 99.897885 44.255129 
L 99.960485 44.525939 
L 100.023084 44.318497 
L 100.148283 44.505323 
L 100.210883 44.289704 
L 100.273482 44.433055 
L 100.336082 44.452653 
L 100.398681 44.303123 
L 100.461281 44.483418 
L 100.52388 44.394716 
L 100.58648 44.346616 
L 100.649079 44.495689 
L 100.711679 44.352476 
L 100.774278 44.401988 
L 100.836878 44.475263 
L 100.899477 44.337451 
L 100.962077 44.450479 
L 101.275074 44.384089 
L 101.337674 44.479722 
L 101.400273 44.368122 
L 101.462873 44.42439 
L 101.525472 44.459033 
L 101.588072 44.361763 
L 101.650671 44.457513 
L 101.963669 44.40527 
L 102.026268 44.468851 
L 102.088868 44.37799 
L 102.214067 44.448166 
L 102.276666 44.377538 
L 102.339266 44.460598 
L 102.589664 44.397003 
L 102.902661 44.44006 
L 103.09046 44.416341 
L 103.653855 44.39878 
L 103.779055 44.413329 
L 106.470833 44.452956 
L 106.721231 44.409925 
L 106.971629 44.454782 
L 107.222027 44.410996 
L 107.472425 44.452429 
L 107.785423 44.435247 
L 108.348818 44.451441 
L 108.599216 44.414254 
L 108.849614 44.452545 
L 109.100012 44.415456 
L 109.41301 44.42896 
L 110.665 44.421767 
L 110.915398 44.448663 
L 111.165796 44.418794 
L 111.416194 44.450463 
L 111.666592 44.418839 
L 111.97959 44.428934 
L 116.486754 44.430132 
L 116.862351 44.444465 
L 117.676144 44.427916 
L 118.051741 44.44182 
L 120.74352 44.426654 
L 121.119117 44.438152 
L 122.558906 44.439041 
L 123.122301 44.426116 
L 123.560498 44.44542 
L 123.998694 44.42944 
L 124.436891 44.439801 
L 125.000286 44.426776 
L 125.438483 44.445384 
L 125.876679 44.429348 
L 126.314876 44.44047 
L 126.878272 44.427421 
L 127.379068 44.429033 
L 128.192861 44.441057 
L 128.756257 44.428057 
L 129.382252 44.44278 
L 129.820448 44.433279 
L 130.383844 44.445044 
L 130.947239 44.435176 
L 132.700025 44.42883 
L 133.138222 44.443336 
L 133.576419 44.432479 
L 134.139814 44.444313 
L 134.765809 44.43106 
L 135.329205 44.443373 
L 136.142998 44.433363 
L 136.768993 44.433026 
L 141.02576 44.437507 
L 142.152551 44.44027 
L 149.288894 44.431677 
L 149.914889 44.437594 
L 151.166879 44.431618 
L 151.792874 44.438133 
L 152.919665 44.439546 
L 241.685762 44.440262 
L 243.000352 44.437797 
L 246.631123 44.440484 
L 248.070912 44.435096 
L 250.261894 44.437828 
L 253.078872 44.437028 
L 255.395054 44.43736 
L 259.58922 44.438449 
L 272.109121 44.440138 
L 273.611509 44.438787 
L 305.036461 44.436301 
L 306.977045 44.439923 
L 308.792431 44.436014 
L 310.607816 44.437823 
L 314.113389 44.437591 
L 317.931958 44.439569 
L 319.684745 44.436559 
L 335.021623 44.439655 
L 336.837009 44.436664 
L 339.15319 44.438089 
L 342.283166 44.435662 
L 344.22375 44.439145 
L 349.169111 44.43838 
L 378.778676 44.43956 
L 380.90706 44.435871 
L 383.536239 44.438693 
L 397.182931 44.436801 
L 399.81211 44.439414 
L 401.940493 44.435892 
L 404.256675 44.439405 
L 406.385058 44.435906 
L 408.701239 44.439397 
L 410.829623 44.43592 
L 413.208404 44.436195 
L 417.089573 44.439015 
L 419.405755 44.436785 
L 422.034934 44.439374 
L 424.225917 44.438794 
L 432.551651 44.436104 
L 434.805233 44.437629 
L 439.813193 44.439348 
L 442.129375 44.436248 
L 444.445556 44.438809 
L 446.886937 44.436236 
L 450.768106 44.43892 
L 453.209487 44.436337 
L 457.779251 44.438819 
L 460.283231 44.438007 
L 470.111353 44.437491 
L 478.06149 44.437958 
L 487.013219 44.43874 
L 489.642398 44.436094 
L 492.146379 44.438513 
L 495.088555 44.436549 
L 501.536304 44.439038 
L 503.977685 44.436572 
L 510.613232 44.438292 
L 513.931006 44.436397 
L 516.372387 44.438852 
L 522.820136 44.43639 
L 525.261516 44.438832 
L 531.897064 44.437133 
L 535.214837 44.438987 
L 537.656218 44.43655 
L 543.916169 44.43928 
L 546.607947 44.437644 
L 551.991505 44.437844 
L 556.874266 44.438169 
L 565.1374 44.438753 
L 565.1374 44.438753 
" clip-path="url(#p0fa5946dbc)" style="fill: none; stroke: #1f77b4; stroke-width: 0.7; stroke-linecap: square"/>
   </g>
   <g id="patch_3">
    <path d="M 52.85 143.08 
L 52.85 27.24 
" style="fill: none; stroke: #000000; stroke-width: 0.8; stroke-linejoin: miter; stroke-linecap: square"/>
   </g>
   <g id="patch_4">
    <path d="M 565.2 143.08 
L 565.2 27.24 
" style="fill: none; stroke: #000000; stroke-width: 0.8; stroke-linejoin: miter; stroke-linecap: square"/>
   </g>
   <g id="patch_5">
    <path d="M 52.85 143.08 
L 565.2 143.08 
" style="fill: none; stroke: #000000; stroke-width: 0.8; stroke-linejoin: miter; stroke-linecap: square"/>
   </g>
   <g id="patch_6">
    <path d="M 52.85 27.24 
L 565.2 27.24 
" style="fill: none; stroke: #000000; stroke-width: 0.8; stroke-linejoin: miter; stroke-linecap: square"/>
   </g>
   <g id="text_14">
    <!-- Réponse en fréquence — Amplitude -->
    <g transform="translate(201.232187 21.24) scale(0.12 -0.12)">
     <defs>
      <path id="DejaVuSans-52" d="M 2841 2188 
Q 3044 2119 3236 1894 
Q 3428 1669 3622 1275 
L 4263 0 
L 3584 0 
L 2988 1197 
Q 2756 1666 2539 1819 
Q 2322 1972 1947 1972 
L 1259 1972 
L 1259 0 
L 628 0 
L 628 4666 
L 2053 4666 
Q 2853 4666 3247 4331 
Q 3641 3997 3641 3322 
Q 3641 2881 3436 2590 
Q 3231 2300 2841 2188 
z
M 1259 4147 
L 1259 2491 
L 2053 2491 
Q 2509 2491 2742 2702 
Q 2975 2913 2975 3322 
Q 2975 3731 2742 3939 
Q 2509 4147 2053 4147 
L 1259 4147 
z
" transform="scale(0.015625)"/>
      <path id="DejaVuSans-6f" d="M 1959 3097 
Q 1497 3097 1228 2736 
Q 959 2375 959 1747 
Q 959 1119 1226 758 
Q 1494 397 1959 397 
Q 2419 397 2687 759 
Q 2956 1122 2956 1747 
Q 2956 2369 2687 2733 
Q 2419 3097 1959 3097 
z
M 1959 3584 
Q 2709 3584 3137 3096 
Q 3566 2609 3566 1747 
Q 3566 888 3137 398 
Q 2709 -91 1959 -91 
Q 1206 -91 779 398 
Q 353 888 353 1747 
Q 353 2609 779 3096 
Q 1206 3584 1959 3584 
z
" transform="scale(0.015625)"/>
      <path id="DejaVuSans-73" d="M 2834 3397 
L 2834 2853 
Q 2591 2978 2328 3040 
Q 2066 3103 1784 3103 
Q 1356 3103 1142 2972 
Q 928 2841 928 2578 
Q 928 2378 1081 2264 
Q 1234 2150 1697 2047 
L 1894 2003 
Q 2506 1872 2764 1633 
Q 3022 1394 3022 966 
Q 3022 478 2636 193 
Q 2250 -91 1575 -91 
Q 1294 -91 989 -36 
Q 684 19 347 128 
L 347 722 
Q 666 556 975 473 
Q 1284 391 1588 391 
Q 1994 391 2212 530 
Q 2431 669 2431 922 
Q 2431 1156 2273 1281 
Q 2116 1406 1581 1522 
L 1381 1569 
Q 847 1681 609 1914 
Q 372 2147 372 2553 
Q 372 3047 722 3315 
Q 1072 3584 1716 3584 
Q 2034 3584 2315 3537 
Q 2597 3491 2834 3397 
z
" transform="scale(0.015625)"/>
      <path id="DejaVuSans-66" d="M 2375 4863 
L 2375 4384 
L 1825 4384 
Q 1516 4384 1395 4259 
Q 1275 4134 1275 3809 
L 1275 3500 
L 2222 3500 
L 2222 3053 
L 1275 3053 
L 1275 0 
L 697 0 
L 697 3053 
L 147 3053 
L 147 3500 
L 697 3500 
L 697 3744 
Q 697 4328 969 4595 
Q 1241 4863 1831 4863 
L 2375 4863 
z
" transform="scale(0.015625)"/>
      <path id="DejaVuSans-2014" d="M 313 1978 
L 6088 1978 
L 6088 1528 
L 313 1528 
L 313 1978 
z
" transform="scale(0.015625)"/>
     </defs>
     <use xlink:href="#DejaVuSans-52"/>
     <use xlink:href="#DejaVuSans-e9" transform="translate(64.982422 0)"/>
     <use xlink:href="#DejaVuSans-70" transform="translate(126.505859 0)"/>
     <use xlink:href="#DejaVuSans-6f" transform="translate(189.982422 0)"/>
     <use xlink:href="#DejaVuSans-6e" transform="translate(251.164062 0)"/>
     <use xlink:href="#DejaVuSans-73" transform="translate(314.542969 0)"/>
     <use xlink:href="#DejaVuSans-65" transform="translate(366.642578 0)"/>
     <use xlink:href="#DejaVuSans-20" transform="translate(428.166016 0)"/>
     <use xlink:href="#DejaVuSans-65" transform="translate(459.953125 0)"/>
     <use xlink:href="#DejaVuSans-6e" transform="translate(521.476562 0)"/>
     <use xlink:href="#DejaVuSans-20" transform="translate(584.855469 0)"/>
     <use xlink:href="#DejaVuSans-66" transform="translate(616.642578 0)"/>
     <use xlink:href="#DejaVuSans-72" transform="translate(651.847656 0)"/>
     <use xlink:href="#DejaVuSans-e9" transform="translate(690.710938 0)"/>
     <use xlink:href="#DejaVuSans-71" transform="translate(752.234375 0)"/>
     <use xlink:href="#DejaVuSans-75" transform="translate(815.710938 0)"/>
     <use xlink:href="#DejaVuSans-65" transform="translate(879.089844 0)"/>
     <use xlink:href="#DejaVuSans-6e" transform="translate(940.613281 0)"/>
     <use xlink:href="#DejaVuSans-63" transform="translate(1003.992188 0)"/>
     <use xlink:href="#DejaVuSans-65" transform="translate(1058.972656 0)"/>
     <use xlink:href="#DejaVuSans-20" transform="translate(1120.496094 0)"/>
     <use xlink:href="#DejaVuSans-2014" transform="translate(1152.283203 0)"/>
     <use xlink:href="#DejaVuSans-20" transform="translate(1252.283203 0)"/>
     <use xlink:href="#DejaVuSans-41" transform="translate(1284.070312 0)"/>
     <use xlink:href="#DejaVuSans-6d" transform="translate(1352.478516 0)"/>
     <use xlink:href="#DejaVuSans-70" transform="translate(1449.890625 0)"/>
     <use xlink:href="#DejaVuSans-6c" transform="translate(1513.367188 0)"/>
     <use xlink:href="#DejaVuSans-69" transform="translate(1541.150391 0)"/>
     <use xlink:href="#DejaVuSans-74" transform="translate(1568.933594 0)"/>
     <use xlink:href="#DejaVuSans-75" transform="translate(1608.142578 0)"/>
     <use xlink:href="#DejaVuSans-64" transform="translate(1671.521484 0)"/>
     <use xlink:href="#DejaVuSans-65" transform="translate(1734.998047 0)"/>
    </g>
   </g>
  </g>
  <g id="axes_2">
   <g id="patch_7">
    <path d="M 52.85 317.68 
L 565.2 317.68 
L 565.2 201.84 
L 52.85 201.84 
z
" style="fill: #ffffff"/>
   </g>
   <g id="matplotlib.axis_3">
    <g id="xtick_9">
     <g id="line2d_24">
      <path d="M 110.527167 317.68 
L 110.527167 201.84 
" clip-path="url(#p07767081c3)" style="fill: none; stroke: #b0b0b0; stroke-opacity: 0.3; stroke-width: 0.8; stroke-linecap: square"/>
     </g>
     <g id="line2d_25">
      <g>
       <use xlink:href="#m0f2d320b6b" x="110.527167" y="317.68" style="stroke: #000000; stroke-width: 0.8"/>
      </g>
     </g>
     <g id="text_15">
      <!-- 2500 -->
      <g transform="translate(97.802167 332.278437) scale(0.1 -0.1)">
       <use xlink:href="#DejaVuSans-32"/>
       <use xlink:href="#DejaVuSans-35" transform="translate(63.623047 0)"/>
       <use xlink:href="#DejaVuSans-30" transform="translate(127.246094 0)"/>
       <use xlink:href="#DejaVuSans-30" transform="translate(190.869141 0)"/>
      </g>
     </g>
    </g>
    <g id="xtick_10">
     <g id="line2d_26">
      <path d="M 168.669473 317.68 
L 168.669473 201.84 
" clip-path="url(#p07767081c3)" style="fill: none; stroke: #b0b0b0; stroke-opacity: 0.3; stroke-width: 0.8; stroke-linecap: square"/>
     </g>
     <g id="line2d_27">
      <g>
       <use xlink:href="#m0f2d320b6b" x="168.669473" y="317.68" style="stroke: #000000; stroke-width: 0.8"/>
      </g>
     </g>
     <g id="text_16">
      <!-- 5000 -->
      <g transform="translate(155.944473 332.278437) scale(0.1 -0.1)">
       <use xlink:href="#DejaVuSans-35"/>
       <use xlink:href="#DejaVuSans-30" transform="translate(63.623047 0)"/>
       <use xlink:href="#DejaVuSans-30" transform="translate(127.246094 0)"/>
       <use xlink:href="#DejaVuSans-30" transform="translate(190.869141 0)"/>
      </g>
     </g>
    </g>
    <g id="xtick_11">
     <g id="line2d_28">
      <path d="M 226.811779 317.68 
L 226.811779 201.84 
" clip-path="url(#p07767081c3)" style="fill: none; stroke: #b0b0b0; stroke-opacity: 0.3; stroke-width: 0.8; stroke-linecap: square"/>
     </g>
     <g id="line2d_29">
      <g>
       <use xlink:href="#m0f2d320b6b" x="226.811779" y="317.68" style="stroke: #000000; stroke-width: 0.8"/>
      </g>
     </g>
     <g id="text_17">
      <!-- 7500 -->
      <g transform="translate(214.086779 332.278437) scale(0.1 -0.1)">
       <use xlink:href="#DejaVuSans-37"/>
       <use xlink:href="#DejaVuSans-35" transform="translate(63.623047 0)"/>
       <use xlink:href="#DejaVuSans-30" transform="translate(127.246094 0)"/>
       <use xlink:href="#DejaVuSans-30" transform="translate(190.869141 0)"/>
      </g>
     </g>
    </g>
    <g id="xtick_12">
     <g id="line2d_30">
      <path d="M 284.954085 317.68 
L 284.954085 201.84 
" clip-path="url(#p07767081c3)" style="fill: none; stroke: #b0b0b0; stroke-opacity: 0.3; stroke-width: 0.8; stroke-linecap: square"/>
     </g>
     <g id="line2d_31">
      <g>
       <use xlink:href="#m0f2d320b6b" x="284.954085" y="317.68" style="stroke: #000000; stroke-width: 0.8"/>
      </g>
     </g>
     <g id="text_18">
      <!-- 10000 -->
      <g transform="translate(269.047835 332.278437) scale(0.1 -0.1)">
       <use xlink:href="#DejaVuSans-31"/>
       <use xlink:href="#DejaVuSans-30" transform="translate(63.623047 0)"/>
       <use xlink:href="#DejaVuSans-30" transform="translate(127.246094 0)"/>
       <use xlink:href="#DejaVuSans-30" transform="translate(190.869141 0)"/>
       <use xlink:href="#DejaVuSans-30" transform="translate(254.492188 0)"/>
      </g>
     </g>
    </g>
    <g id="xtick_13">
     <g id="line2d_32">
      <path d="M 343.096391 317.68 
L 343.096391 201.84 
" clip-path="url(#p07767081c3)" style="fill: none; stroke: #b0b0b0; stroke-opacity: 0.3; stroke-width: 0.8; stroke-linecap: square"/>
     </g>
     <g id="line2d_33">
      <g>
       <use xlink:href="#m0f2d320b6b" x="343.096391" y="317.68" style="stroke: #000000; stroke-width: 0.8"/>
      </g>
     </g>
     <g id="text_19">
      <!-- 12500 -->
      <g transform="translate(327.190141 332.278437) scale(0.1 -0.1)">
       <use xlink:href="#DejaVuSans-31"/>
       <use xlink:href="#DejaVuSans-32" transform="translate(63.623047 0)"/>
       <use xlink:href="#DejaVuSans-35" transform="translate(127.246094 0)"/>
       <use xlink:href="#DejaVuSans-30" transform="translate(190.869141 0)"/>
       <use xlink:href="#DejaVuSans-30" transform="translate(254.492188 0)"/>
      </g>
     </g>
    </g>
    <g id="xtick_14">
     <g id="line2d_34">
      <path d="M 401.238697 317.68 
L 401.238697 201.84 
" clip-path="url(#p07767081c3)" style="fill: none; stroke: #b0b0b0; stroke-opacity: 0.3; stroke-width: 0.8; stroke-linecap: square"/>
     </g>
     <g id="line2d_35">
      <g>
       <use xlink:href="#m0f2d320b6b" x="401.238697" y="317.68" style="stroke: #000000; stroke-width: 0.8"/>
      </g>
     </g>
     <g id="text_20">
      <!-- 15000 -->
      <g transform="translate(385.332447 332.278437) scale(0.1 -0.1)">
       <use xlink:href="#DejaVuSans-31"/>
       <use xlink:href="#DejaVuSans-35" transform="translate(63.623047 0)"/>
       <use xlink:href="#DejaVuSans-30" transform="translate(127.246094 0)"/>
       <use xlink:href="#DejaVuSans-30" transform="translate(190.869141 0)"/>
       <use xlink:href="#DejaVuSans-30" transform="translate(254.492188 0)"/>
      </g>
     </g>
    </g>
    <g id="xtick_15">
     <g id="line2d_36">
      <path d="M 459.381003 317.68 
L 459.381003 201.84 
" clip-path="url(#p07767081c3)" style="fill: none; stroke: #b0b0b0; stroke-opacity: 0.3; stroke-width: 0.8; stroke-linecap: square"/>
     </g>
     <g id="line2d_37">
      <g>
       <use xlink:href="#m0f2d320b6b" x="459.381003" y="317.68" style="stroke: #000000; stroke-width: 0.8"/>
      </g>
     </g>
     <g id="text_21">
      <!-- 17500 -->
      <g transform="translate(443.474753 332.278437) scale(0.1 -0.1)">
       <use xlink:href="#DejaVuSans-31"/>
       <use xlink:href="#DejaVuSans-37" transform="translate(63.623047 0)"/>
       <use xlink:href="#DejaVuSans-35" transform="translate(127.246094 0)"/>
       <use xlink:href="#DejaVuSans-30" transform="translate(190.869141 0)"/>
       <use xlink:href="#DejaVuSans-30" transform="translate(254.492188 0)"/>
      </g>
     </g>
    </g>
    <g id="xtick_16">
     <g id="line2d_38">
      <path d="M 517.523309 317.68 
L 517.523309 201.84 
" clip-path="url(#p07767081c3)" style="fill: none; stroke: #b0b0b0; stroke-opacity: 0.3; stroke-width: 0.8; stroke-linecap: square"/>
     </g>
     <g id="line2d_39">
      <g>
       <use xlink:href="#m0f2d320b6b" x="517.523309" y="317.68" style="stroke: #000000; stroke-width: 0.8"/>
      </g>
     </g>
     <g id="text_22">
      <!-- 20000 -->
      <g transform="translate(501.617059 332.278437) scale(0.1 -0.1)">
       <use xlink:href="#DejaVuSans-32"/>
       <use xlink:href="#DejaVuSans-30" transform="translate(63.623047 0)"/>
       <use xlink:href="#DejaVuSans-30" transform="translate(127.246094 0)"/>
       <use xlink:href="#DejaVuSans-30" transform="translate(190.869141 0)"/>
       <use xlink:href="#DejaVuSans-30" transform="translate(254.492188 0)"/>
      </g>
     </g>
    </g>
    <g id="text_23">
     <!-- Fréquence (Hz) -->
     <g transform="translate(271.203125 346.356562) scale(0.1 -0.1)">
      <use xlink:href="#DejaVuSans-46"/>
      <use xlink:href="#DejaVuSans-72" transform="translate(50.269531 0)"/>
      <use xlink:href="#DejaVuSans-e9" transform="translate(89.132812 0)"/>
      <use xlink:href="#DejaVuSans-71" transform="translate(150.65625 0)"/>
      <use xlink:href="#DejaVuSans-75" transform="translate(214.132812 0)"/>
      <use xlink:href="#DejaVuSans-65" transform="translate(277.511719 0)"/>
      <use xlink:href="#DejaVuSans-6e" transform="translate(339.035156 0)"/>
      <use xlink:href="#DejaVuSans-63" transform="translate(402.414062 0)"/>
      <use xlink:href="#DejaVuSans-65" transform="translate(457.394531 0)"/>
      <use xlink:href="#DejaVuSans-20" transform="translate(518.917969 0)"/>
      <use xlink:href="#DejaVuSans-28" transform="translate(550.705078 0)"/>
      <use xlink:href="#DejaVuSans-48" transform="translate(589.71875 0)"/>
      <use xlink:href="#DejaVuSans-7a" transform="translate(664.914062 0)"/>
      <use xlink:href="#DejaVuSans-29" transform="translate(717.404297 0)"/>
     </g>
    </g>
   </g>
   <g id="matplotlib.axis_4">
    <g id="ytick_4">
     <g id="line2d_40">
      <path d="M 52.85 317.492015 
L 565.2 317.492015 
" clip-path="url(#p07767081c3)" style="fill: none; stroke: #b0b0b0; stroke-opacity: 0.3; stroke-width: 0.8; stroke-linecap: square"/>
     </g>
     <g id="line2d_41">
      <g>
       <use xlink:href="#m5281f369c1" x="52.85" y="317.492015" style="stroke: #000000; stroke-width: 0.8"/>
      </g>
     </g>
     <g id="text_24">
      <!-- −2 -->
      <g transform="translate(31.107813 321.291234) scale(0.1 -0.1)">
       <use xlink:href="#DejaVuSans-2212"/>
       <use xlink:href="#DejaVuSans-32" transform="translate(83.789062 0)"/>
      </g>
     </g>
    </g>
    <g id="ytick_5">
     <g id="line2d_42">
      <path d="M 52.85 274.553351 
L 565.2 274.553351 
" clip-path="url(#p07767081c3)" style="fill: none; stroke: #b0b0b0; stroke-opacity: 0.3; stroke-width: 0.8; stroke-linecap: square"/>
     </g>
     <g id="line2d_43">
      <g>
       <use xlink:href="#m5281f369c1" x="52.85" y="274.553351" style="stroke: #000000; stroke-width: 0.8"/>
      </g>
     </g>
     <g id="text_25">
      <!-- 0 -->
      <g transform="translate(39.4875 278.35257) scale(0.1 -0.1)">
       <use xlink:href="#DejaVuSans-30"/>
      </g>
     </g>
    </g>
    <g id="ytick_6">
     <g id="line2d_44">
      <path d="M 52.85 231.614687 
L 565.2 231.614687 
" clip-path="url(#p07767081c3)" style="fill: none; stroke: #b0b0b0; stroke-opacity: 0.3; stroke-width: 0.8; stroke-linecap: square"/>
     </g>
     <g id="line2d_45">
      <g>
       <use xlink:href="#m5281f369c1" x="52.85" y="231.614687" style="stroke: #000000; stroke-width: 0.8"/>
      </g>
     </g>
     <g id="text_26">
      <!-- 2 -->
      <g transform="translate(39.4875 235.413905) scale(0.1 -0.1)">
       <use xlink:href="#DejaVuSans-32"/>
      </g>
     </g>
    </g>
    <g id="text_27">
     <!-- Phase (rad) -->
     <g transform="translate(25.028125 288.473281) rotate(-90) scale(0.1 -0.1)">
      <defs>
       <path id="DejaVuSans-50" d="M 1259 4147 
L 1259 2394 
L 2053 2394 
Q 2494 2394 2734 2622 
Q 2975 2850 2975 3272 
Q 2975 3691 2734 3919 
Q 2494 4147 2053 4147 
L 1259 4147 
z
M 628 4666 
L 2053 4666 
Q 2838 4666 3239 4311 
Q 3641 3956 3641 3272 
Q 3641 2581 3239 2228 
Q 2838 1875 2053 1875 
L 1259 1875 
L 1259 0 
L 628 0 
L 628 4666 
z
" transform="scale(0.015625)"/>
       <path id="DejaVuSans-68" d="M 3513 2113 
L 3513 0 
L 2938 0 
L 2938 2094 
Q 2938 2591 2744 2837 
Q 2550 3084 2163 3084 
Q 1697 3084 1428 2787 
Q 1159 2491 1159 1978 
L 1159 0 
L 581 0 
L 581 4863 
L 1159 4863 
L 1159 2956 
Q 1366 3272 1645 3428 
Q 1925 3584 2291 3584 
Q 2894 3584 3203 3211 
Q 3513 2838 3513 2113 
z
" transform="scale(0.015625)"/>
       <path id="DejaVuSans-61" d="M 2194 1759 
Q 1497 1759 1228 1600 
Q 959 1441 959 1056 
Q 959 750 1161 570 
Q 1363 391 1709 391 
Q 2188 391 2477 730 
Q 2766 1069 2766 1631 
L 2766 1759 
L 2194 1759 
z
M 3341 1997 
L 3341 0 
L 2766 0 
L 2766 531 
Q 2569 213 2275 61 
Q 1981 -91 1556 -91 
Q 1019 -91 701 211 
Q 384 513 384 1019 
Q 384 1609 779 1909 
Q 1175 2209 1959 2209 
L 2766 2209 
L 2766 2266 
Q 2766 2663 2505 2880 
Q 2244 3097 1772 3097 
Q 1472 3097 1187 3025 
Q 903 2953 641 2809 
L 641 3341 
Q 956 3463 1253 3523 
Q 1550 3584 1831 3584 
Q 2591 3584 2966 3190 
Q 3341 2797 3341 1997 
z
" transform="scale(0.015625)"/>
      </defs>
      <use xlink:href="#DejaVuSans-50"/>
      <use xlink:href="#DejaVuSans-68" transform="translate(60.302734 0)"/>
      <use xlink:href="#DejaVuSans-61" transform="translate(123.681641 0)"/>
      <use xlink:href="#DejaVuSans-73" transform="translate(184.960938 0)"/>
      <use xlink:href="#DejaVuSans-65" transform="translate(237.060547 0)"/>
      <use xlink:href="#DejaVuSans-20" transform="translate(298.583984 0)"/>
      <use xlink:href="#DejaVuSans-28" transform="translate(330.371094 0)"/>
      <use xlink:href="#DejaVuSans-72" transform="translate(369.384766 0)"/>
      <use xlink:href="#DejaVuSans-61" transform="translate(410.498047 0)"/>
      <use xlink:href="#DejaVuSans-64" transform="translate(471.777344 0)"/>
      <use xlink:href="#DejaVuSans-29" transform="translate(535.253906 0)"/>
     </g>
    </g>
   </g>
   <g id="line2d_46">
    <path d="M 52.823058 259.143145 
L 53.010857 295.910396 
L 53.073456 241.597706 
L 53.136056 253.481734 
L 53.386454 302.719495 
L 53.449053 247.824008 
L 53.511653 260.515202 
L 53.699451 297.337247 
L 53.762051 242.245755 
L 53.82465 254.728489 
L 54.075048 303.985584 
L 54.137648 248.983339 
L 54.200247 261.554266 
L 54.388046 298.418432 
L 54.450645 243.286835 
L 54.513245 255.776142 
L 54.763643 305.055959 
L 54.826242 250.021221 
L 54.888842 262.534452 
L 55.07664 299.423707 
L 55.13924 244.297003 
L 55.201839 256.768565 
L 55.452237 306.069153 
L 55.514837 251.014994 
L 55.577436 263.493669 
L 55.765235 300.400241 
L 55.827834 245.282186 
L 55.890434 257.737828 
L 56.140832 307.068875 
L 56.203431 251.987796 
L 56.266031 264.442974 
L 56.453829 301.362994 
L 56.516429 246.252257 
L 56.579028 258.69514 
L 56.829426 308.390866 
L 56.892026 252.948946 
L 56.954625 265.386777 
L 57.142424 302.318269 
L 57.205023 247.212898 
L 57.267623 259.645439 
L 57.455421 296.641413 
L 57.518021 241.444866 
L 57.58062 253.902921 
L 57.831018 303.269302 
L 57.893618 248.16733 
L 57.956217 260.59124 
L 58.144016 297.583096 
L 58.206615 242.426105 
L 58.269215 254.852135 
L 58.519613 304.21815 
L 58.582212 249.117467 
L 58.644812 261.533963 
L 58.83261 298.523404 
L 58.89521 243.383309 
L 58.957809 255.798007 
L 59.208208 305.166687 
L 59.270807 250.064502 
L 59.333407 262.474469 
L 59.521205 299.462833 
L 59.583805 244.333317 
L 59.646404 256.741424 
L 59.896802 306.118027 
L 59.959402 251.009215 
L 60.022001 263.413313 
L 60.2098 300.401732 
L 60.272399 245.279638 
L 60.334999 257.68297 
L 60.585397 307.083119 
L 60.647996 251.952134 
L 60.710596 264.350871 
L 60.898394 301.340373 
L 60.960994 246.223624 
L 61.023593 258.623046 
L 61.273991 308.246507 
L 61.336591 252.893628 
L 61.39919 265.287405 
L 61.586989 302.279012 
L 61.649588 247.165963 
L 61.712188 259.561936 
L 61.899986 296.580966 
L 61.962586 241.371278 
L 62.025185 253.83396 
L 62.275583 303.217956 
L 62.338183 248.107061 
L 62.400782 260.499848 
L 62.588581 297.515647 
L 62.65118 242.36069 
L 62.71378 254.773327 
L 62.964178 304.157674 
L 63.026777 249.047179 
L 63.089377 261.436938 
L 63.277175 298.450477 
L 63.339775 243.312882 
L 63.402374 255.711874 
L 63.652772 305.099098 
L 63.715372 249.986496 
L 63.777971 262.373326 
L 63.96577 299.385506 
L 64.028369 244.257271 
L 64.090969 256.649714 
L 64.341367 306.044642 
L 64.403966 250.92514 
L 64.466566 263.309107 
L 64.654364 300.320792 
L 64.716964 245.19858 
L 64.779563 257.586936 
L 65.029961 307.003683 
L 65.092561 251.863205 
L 65.15516 264.244357 
L 65.342959 301.256415 
L 65.405558 246.138274 
L 65.468158 258.523607 
L 65.718556 308.088321 
L 65.781155 252.800761 
L 65.843755 265.179139 
L 66.031553 302.192502 
L 66.094153 247.076965 
L 66.156752 259.459786 
L 66.344551 296.487702 
L 66.40715 241.257556 
L 66.46975 253.737861 
L 66.720148 303.129263 
L 66.782748 248.014955 
L 66.845347 260.395519 
L 67.033146 297.42128 
L 67.095745 242.26444 
L 67.158345 254.674548 
L 67.408743 304.067099 
L 67.471342 248.952414 
L 67.533942 261.330845 
L 67.72174 298.355129 
L 67.78434 243.217377 
L 67.846939 255.610856 
L 68.097337 305.006868 
L 68.159937 249.889443 
L 68.222536 262.265798 
L 68.410335 299.289281 
L 68.472934 244.160816 
L 68.535534 256.546811 
L 68.785932 305.950819 
L 68.848531 250.826108 
L 68.911131 263.200408 
L 69.098929 300.223782 
L 69.161529 245.100852 
L 69.224128 257.482437 
L 69.474526 306.90727 
L 69.537126 251.762451 
L 69.599725 264.134699 
L 69.787524 301.158707 
L 69.850123 246.039251 
L 69.912723 258.417753 
L 70.163121 307.953107 
L 70.22572 252.698504 
L 70.28832 265.068697 
L 70.476118 302.094176 
L 70.538718 246.976709 
L 70.601317 259.352774 
L 70.789116 296.385696 
L 70.851715 241.119328 
L 70.914315 253.634287 
L 71.164713 303.030401 
L 71.227312 247.913558 
L 71.289912 260.287517 
L 71.47771 297.319123 
L 71.54031 242.157039 
L 71.602909 254.569815 
L 71.853307 303.967782 
L 71.915907 248.849969 
L 71.978506 261.221994 
L 72.166305 298.252841 
L 72.228904 243.112953 
L 72.291504 255.5051 
L 72.541902 304.907174 
L 72.604501 249.786041 
L 72.667101 262.156218 
L 72.854899 299.186883 
L 72.917499 244.056897 
L 72.980098 256.440151 
L 73.230496 305.850754 
L 73.293096 250.721833 
L 73.355695 263.090202 
L 73.543494 300.121303 
L 73.606093 244.996818 
L 73.668693 257.374975 
L 73.919091 306.806147 
L 73.981691 251.657382 
L 74.04429 264.023956 
L 74.232089 301.056182 
L 74.294688 245.934888 
L 74.357288 258.309579 
L 74.607686 307.831276 
L 74.670285 252.592711 
L 74.732885 264.957494 
L 74.920683 301.991651 
L 74.983283 246.871941 
L 75.045882 259.243968 
L 75.233681 296.280414 
L 75.29628 240.946417 
L 75.35888 253.527833 
L 75.609278 302.927937 
L 75.671877 247.80836 
L 75.734477 260.178146 
L 75.922275 297.214018 
L 75.984875 242.042706 
L 76.047474 254.462759 
L 76.297872 303.865466 
L 76.360472 248.744343 
L 76.423071 261.112121 
L 76.61087 298.147933 
L 76.673469 243.003777 
L 76.736069 255.397494 
L 76.986467 304.805123 
L 77.049066 249.680001 
L 77.111666 262.045896 
L 77.299464 299.082201 
L 77.362064 243.949213 
L 77.424663 256.332042 
L 77.675061 305.749107 
L 77.737661 250.615397 
L 77.80026 262.979479 
L 77.988059 300.016888 
L 78.050658 244.889702 
L 78.113258 257.266406 
L 78.363656 306.704722 
L 78.426255 251.550572 
L 78.488855 263.912875 
L 78.676653 300.952088 
L 78.739253 245.827995 
L 78.801852 258.200587 
L 79.05225 307.719427 
L 79.11485 252.485549 
L 79.177449 264.846092 
L 79.365248 301.887956 
L 79.427847 246.765113 
L 79.490447 259.134587 
L 79.678245 296.174045 
L 79.740845 240.693515 
L 79.803444 253.420341 
L 80.053842 302.824751 
L 80.116442 247.70152 
L 80.179041 260.068408 
L 80.36684 297.108072 
L 80.429439 241.921392 
L 80.492039 254.354959 
L 80.742437 303.76295 
L 80.805036 248.637452 
L 80.867636 261.002052 
L 81.055434 298.042463 
L 81.118034 242.890921 
L 81.180633 255.289406 
L 81.431032 304.703529 
L 81.493631 249.57304 
L 81.556231 261.935521 
L 81.744029 298.977278 
L 81.806629 243.839053 
L 81.869228 256.223684 
L 82.119626 305.648842 
L 82.182226 250.508361 
L 82.244825 262.868819 
L 82.432624 299.912602 
L 82.495223 244.780841 
L 82.557823 257.157795 
L 82.808221 306.606344 
L 82.87082 251.443461 
L 82.93342 263.801949 
L 83.121218 300.848562 
L 83.183818 245.71991 
L 83.246417 258.09174 
L 83.496815 307.618604 
L 83.559415 252.378368 
L 83.622014 264.734916 
L 83.809813 301.785356 
L 83.872412 246.657565 
L 83.935012 259.025516 
L 84.12281 296.068164 
L 84.18541 240.146207 
L 84.248009 253.3131 
L 84.498407 302.723314 
L 84.561007 247.594389 
L 84.623606 259.959125 
L 84.811405 297.003003 
L 84.874004 241.789425 
L 84.936604 254.247667 
L 85.187002 303.663029 
L 85.249601 248.530677 
L 85.312201 260.892566 
L 85.499999 297.938346 
L 85.562599 242.773666 
L 85.625198 255.182074 
L 85.875596 304.605691 
L 85.938196 249.466596 
L 86.000795 261.825839 
L 86.188594 298.874294 
L 86.251193 243.726586 
L 86.313793 256.116325 
L 86.564191 305.554086 
L 86.62679 250.402244 
L 86.68939 262.758946 
L 86.877188 299.810986 
L 86.939788 244.670899 
L 87.002387 257.050421 
L 87.252785 306.516651 
L 87.315385 251.337682 
L 87.377984 263.691887 
L 87.565783 300.74863 
L 87.628382 245.611679 
L 87.690982 257.984363 
L 87.94138 307.536526 
L 88.003979 252.272952 
L 88.066579 264.624665 
L 88.254377 301.687543 
L 88.316977 246.550701 
L 88.379576 258.918149 
L 88.567375 295.965247 
L 88.629974 235.322624 
L 88.692574 253.208082 
L 88.942972 302.628247 
L 89.005572 247.488756 
L 89.068171 259.851781 
L 89.25597 296.901907 
L 89.318569 241.634322 
L 89.381169 254.143094 
L 89.631567 303.571661 
L 89.694166 248.426252 
L 89.756766 260.785258 
L 89.944564 297.839517 
L 90.007164 242.647961 
L 90.069763 255.078009 
L 90.320161 304.519583 
L 90.382761 249.363434 
L 90.44536 261.71858 
L 90.633159 298.77833 
L 90.695758 243.610532 
L 90.758358 256.012847 
L 91.008756 305.476101 
L 91.071355 250.300469 
L 91.133955 262.651748 
L 91.321753 299.71872 
L 91.384353 244.560367 
L 91.446952 256.947629 
L 91.69735 306.453039 
L 91.75995 251.237493 
L 91.822549 263.584765 
L 92.010348 300.661249 
L 92.072947 245.505388 
L 92.135547 257.882387 
L 92.385945 307.505241 
L 92.448544 252.174635 
L 92.511144 264.517635 
L 92.698942 301.606808 
L 92.761542 246.448367 
L 92.824141 258.817161 
L 93.074539 311.032614 
L 93.137139 253.112051 
L 93.199738 265.450361 
L 93.387537 302.556894 
L 93.450136 247.390652 
L 93.512736 259.752015 
L 93.700534 296.816758 
L 93.763134 241.400645 
L 93.825733 254.049945 
L 94.076131 303.514216 
L 94.138731 248.333151 
L 94.20133 260.687047 
L 94.389129 297.763418 
L 94.451728 242.493209 
L 94.514328 254.988636 
L 94.764726 304.484189 
L 94.827325 249.276755 
L 94.889925 261.622422 
L 95.077723 298.715613 
L 95.140323 243.483016 
L 95.202922 255.928654 
L 95.45332 305.479297 
L 95.51592 250.222696 
L 95.578519 262.558437 
L 95.766318 299.676917 
L 95.828917 244.452103 
L 95.891517 256.870994 
L 96.141915 306.535511 
L 96.204514 251.173188 
L 96.267114 263.495687 
L 96.454913 300.654785 
L 96.517512 245.418506 
L 96.580112 257.817783 
L 96.83051 307.811028 
L 96.893109 252.133213 
L 96.955709 264.435556 
L 97.143507 301.667586 
L 97.206107 246.395293 
L 97.268706 258.774536 
L 97.519104 312.414545 
L 97.581704 253.117515 
L 97.644303 265.382176 
L 97.832102 302.775046 
L 97.894701 247.415242 
L 97.957301 259.76138 
L 98.145099 296.998773 
L 98.207699 240.109027 
L 98.270298 254.198674 
L 98.520696 304.32676 
L 98.583296 248.752132 
L 98.645895 260.951772 
L 98.833694 299.217123 
L 98.896293 246.355432 
L 98.958893 259.894136 
L 99.084092 274.917353 
L 99.146691 272.728658 
L 99.209291 274.104028 
L 99.27189 274.311738 
L 99.33449 273.576954 
L 99.397089 274.523497 
L 99.459689 274.124982 
L 99.522288 274.023018 
L 99.584888 274.578681 
L 99.647487 274.075984 
L 99.710087 274.308072 
L 99.772686 274.510596 
L 99.835286 274.11819 
L 99.897885 274.479867 
L 99.960485 274.409253 
L 100.023084 274.217821 
L 100.085684 274.555626 
L 100.148283 274.326329 
L 100.210883 274.339816 
L 100.273482 274.554789 
L 100.336082 274.289169 
L 100.398681 274.451447 
L 100.461281 274.505175 
L 100.52388 274.303607 
L 100.58648 274.528193 
L 100.649079 274.439193 
L 100.711679 274.358349 
L 100.774278 274.558343 
L 100.836878 274.386039 
L 100.899477 274.431903 
L 100.962077 274.544666 
L 101.024676 274.364436 
L 101.087276 274.500466 
L 101.149875 274.502181 
L 101.212475 274.379117 
L 101.275074 274.545054 
L 101.337674 274.452356 
L 101.400273 274.421931 
L 101.462873 274.556499 
L 101.525472 274.415585 
L 101.588072 274.476529 
L 101.650671 274.53723 
L 101.713271 274.404716 
L 101.77587 274.52465 
L 102.088868 274.4593 
L 102.151467 274.55301 
L 102.214067 274.434219 
L 102.276666 274.503045 
L 102.339266 274.530901 
L 102.401865 274.431116 
L 102.464465 274.538379 
L 102.589664 274.450514 
L 102.652263 274.554689 
L 102.714863 274.465242 
L 103.02786 274.525289 
L 103.09046 274.450663 
L 103.153059 274.546519 
L 103.278258 274.471651 
L 103.340858 274.554738 
L 103.403457 274.469668 
L 103.716455 274.520294 
L 103.904254 274.493375 
L 104.467649 274.479514 
L 104.530249 274.553502 
L 104.592848 274.492499 
L 105.406642 274.547372 
L 105.531841 274.535474 
L 106.721231 274.53029 
L 107.284627 274.549354 
L 107.409826 274.536833 
L 113.356779 274.518899 
L 113.607177 274.550866 
L 113.857575 274.515553 
L 114.107973 274.553347 
L 114.358371 274.515782 
L 114.608769 274.552175 
L 114.921766 274.53768 
L 115.67296 274.544276 
L 115.923358 274.523935 
L 116.173756 274.550133 
L 116.424154 274.520137 
L 116.674552 274.553097 
L 116.92495 274.519453 
L 117.175348 274.552796 
L 117.488346 274.540862 
L 118.740336 274.549424 
L 118.990734 274.523818 
L 119.241132 274.552753 
L 119.49153 274.522445 
L 119.741928 274.553154 
L 120.054926 274.543359 
L 123.184901 274.549781 
L 123.435299 274.527693 
L 123.685697 274.552767 
L 123.936095 274.52632 
L 124.249092 274.532528 
L 125.939279 274.542044 
L 126.502675 274.528202 
L 126.815672 274.532887 
L 128.005063 274.536197 
L 215.581769 274.545739 
L 216.458162 274.549086 
L 218.398747 274.552918 
L 219.27514 274.549903 
L 220.714928 274.546587 
L 221.653921 274.552141 
L 222.592913 274.546359 
L 223.531906 274.552469 
L 224.470899 274.54616 
L 225.409891 274.552765 
L 226.348884 274.545991 
L 227.287876 274.553027 
L 228.226869 274.545854 
L 229.165861 274.553255 
L 230.104854 274.545749 
L 231.043847 274.553449 
L 231.982839 274.545676 
L 232.921832 274.553606 
L 233.860824 274.545638 
L 234.799817 274.553729 
L 235.738809 274.545632 
L 236.677802 274.553816 
L 237.616794 274.545659 
L 238.555787 274.553868 
L 239.557379 274.552603 
L 242.436956 274.548993 
L 244.001944 274.552633 
L 246.881521 274.549096 
L 248.509108 274.55039 
L 250.449693 274.546749 
L 251.388685 274.553466 
L 252.327678 274.546654 
L 253.266671 274.55363 
L 254.268263 274.553516 
L 255.89585 274.546635 
L 257.335638 274.552718 
L 260.716012 274.547938 
L 261.842803 274.55072 
L 263.783387 274.547191 
L 264.847579 274.551671 
L 284.566423 274.55258 
L 285.881012 274.552641 
L 292.015764 274.55048 
L 294.269346 274.553662 
L 296.27253 274.548749 
L 297.52452 274.554009 
L 299.026908 274.550846 
L 301.656087 274.55323 
L 302.908077 274.548032 
L 304.535664 274.554098 
L 306.038053 274.551195 
L 309.355826 274.55267 
L 310.795615 274.548506 
L 312.047605 274.553723 
L 314.238588 274.550735 
L 316.554769 274.550713 
L 321.374931 274.548344 
L 323.002518 274.554234 
L 324.442307 274.548775 
L 326.633289 274.551675 
L 329.13727 274.553459 
L 332.642842 274.549254 
L 335.835417 274.554092 
L 337.150006 274.551459 
L 340.46778 274.553044 
L 342.095367 274.5503 
L 343.848153 274.554073 
L 345.976536 274.549523 
L 349.482109 274.553697 
L 352.674683 274.549123 
L 354.114472 274.554362 
L 355.742059 274.548966 
L 357.244447 274.550945 
L 367.072569 274.552368 
L 374.146313 274.553207 
L 375.899099 274.549638 
L 378.403079 274.554278 
L 379.842868 274.54936 
L 381.533055 274.550148 
L 385.789821 274.551605 
L 391.298577 274.549516 
L 392.926164 274.554533 
L 394.553752 274.549636 
L 396.118739 274.551207 
L 398.247122 274.553631 
L 399.999908 274.550138 
L 403.192483 274.554351 
L 404.757471 274.552512 
L 407.574448 274.551491 
L 410.015829 274.554621 
L 411.831215 274.550298 
L 413.458802 274.55393 
L 415.086389 274.550781 
L 416.901775 274.552019 
L 421.909735 274.550081 
L 423.537322 274.554394 
L 425.164909 274.55042 
L 426.792496 274.554043 
L 428.545282 274.550676 
L 433.115046 274.554233 
L 434.742633 274.550774 
L 436.495419 274.554133 
L 440.689586 274.550451 
L 443.569163 274.552342 
L 448.076328 274.550874 
L 449.829114 274.554178 
L 454.398878 274.550784 
L 456.151664 274.554051 
L 462.098617 274.551273 
L 464.039201 274.554902 
L 465.854587 274.550998 
L 467.607373 274.554239 
L 472.490134 274.550633 
L 474.994114 274.554667 
L 476.746901 274.551583 
L 491.269986 274.55229 
L 501.223307 274.550714 
L 503.038692 274.554407 
L 504.979277 274.550751 
L 506.982461 274.55361 
L 509.61164 274.551054 
L 511.364426 274.554079 
L 527.577698 274.552105 
L 529.83128 274.554464 
L 536.779825 274.550991 
L 538.72041 274.554498 
L 546.044552 274.552532 
L 548.673731 274.555143 
L 550.426517 274.552196 
L 565.1374 274.551743 
L 565.1374 274.551743 
" clip-path="url(#p07767081c3)" style="fill: none; stroke: #ff7f0e; stroke-width: 0.7; stroke-linecap: square"/>
   </g>
   <g id="patch_8">
    <path d="M 52.85 317.68 
L 52.85 201.84 
" style="fill: none; stroke: #000000; stroke-width: 0.8; stroke-linejoin: miter; stroke-linecap: square"/>
   </g>
   <g id="patch_9">
    <path d="M 565.2 317.68 
L 565.2 201.84 
" style="fill: none; stroke: #000000; stroke-width: 0.8; stroke-linejoin: miter; stroke-linecap: square"/>
   </g>
   <g id="patch_10">
    <path d="M 52.85 317.68 
L 565.2 317.68 
" style="fill: none; stroke: #000000; stroke-width: 0.8; stroke-linejoin: miter; stroke-linecap: square"/>
   </g>
   <g id="patch_11">
    <path d="M 52.85 201.84 
L 565.2 201.84 
" style="fill: none; stroke: #000000; stroke-width: 0.8; stroke-linejoin: miter; stroke-linecap: square"/>
   </g>
   <g id="text_28">
    <!-- Réponse en fréquence — Phase -->
    <g transform="translate(214.064687 195.84) scale(0.12 -0.12)">
     <use xlink:href="#DejaVuSans-52"/>
     <use xlink:href="#DejaVuSans-e9" transform="translate(64.982422 0)"/>
     <use xlink:href="#DejaVuSans-70" transform="translate(126.505859 0)"/>
     <use xlink:href="#DejaVuSans-6f" transform="translate(189.982422 0)"/>
     <use xlink:href="#DejaVuSans-6e" transform="translate(251.164062 0)"/>
     <use xlink:href="#DejaVuSans-73" transform="translate(314.542969 0)"/>
     <use xlink:href="#DejaVuSans-65" transform="translate(366.642578 0)"/>
     <use xlink:href="#DejaVuSans-20" transform="translate(428.166016 0)"/>
     <use xlink:href="#DejaVuSans-65" transform="translate(459.953125 0)"/>
     <use xlink:href="#DejaVuSans-6e" transform="translate(521.476562 0)"/>
     <use xlink:href="#DejaVuSans-20" transform="translate(584.855469 0)"/>
     <use xlink:href="#DejaVuSans-66" transform="translate(616.642578 0)"/>
     <use xlink:href="#DejaVuSans-72" transform="translate(651.847656 0)"/>
     <use xlink:href="#DejaVuSans-e9" transform="translate(690.710938 0)"/>
     <use xlink:href="#DejaVuSans-71" transform="translate(752.234375 0)"/>
     <use xlink:href="#DejaVuSans-75" transform="translate(815.710938 0)"/>
     <use xlink:href="#DejaVuSans-65" transform="translate(879.089844 0)"/>
     <use xlink:href="#DejaVuSans-6e" transform="translate(940.613281 0)"/>
     <use xlink:href="#DejaVuSans-63" transform="translate(1003.992188 0)"/>
     <use xlink:href="#DejaVuSans-65" transform="translate(1058.972656 0)"/>
     <use xlink:href="#DejaVuSans-20" transform="translate(1120.496094 0)"/>
     <use xlink:href="#DejaVuSans-2014" transform="translate(1152.283203 0)"/>
     <use xlink:href="#DejaVuSans-20" transform="translate(1252.283203 0)"/>
     <use xlink:href="#DejaVuSans-50" transform="translate(1284.070312 0)"/>
     <use xlink:href="#DejaVuSans-68" transform="translate(1344.373047 0)"/>
     <use xlink:href="#DejaVuSans-61" transform="translate(1407.751953 0)"/>
     <use xlink:href="#DejaVuSans-73" transform="translate(1469.03125 0)"/>
     <use xlink:href="#DejaVuSans-65" transform="translate(1521.130859 0)"/>
    </g>
   </g>
  </g>
 </g>
 <defs>
  <clipPath id="p0fa5946dbc">
   <rect x="52.85" y="27.24" width="512.35" height="115.84"/>
  </clipPath>
  <clipPath id="p07767081c3">
   <rect x="52.85" y="201.84" width="512.35" height="115.84"/>
  </clipPath>
 </defs>
</svg>
