<?xml version="1.0" encoding="utf-8" standalone="no"?>
<!DOCTYPE svg PUBLIC "-//W3C//DTD SVG 1.1//EN"
  "http://www.w3.org/Graphics/SVG/1.1/DTD/svg11.dtd">
<svg xmlns:xlink="http://www.w3.org/1999/xlink" width="712.8pt" height="204.872727pt" viewBox="0 0 712.8 204.872727" xmlns="http://www.w3.org/2000/svg" version="1.1">
 <metadata>
  <rdf:RDF xmlns:dc="http://purl.org/dc/elements/1.1/" xmlns:cc="http://creativecommons.org/ns#" xmlns:rdf="http://www.w3.org/1999/02/22-rdf-syntax-ns#">
   <cc:Work>
    <dc:type rdf:resource="http://purl.org/dc/dcmitype/StillImage"/>
    <dc:date>2026-02-10T22:40:08.705863</dc:date>
    <dc:format>image/svg+xml</dc:format>
    <dc:creator>
     <cc:Agent>
      <dc:title>Matplotlib v3.10.8, https://matplotlib.org/</dc:title>
     </cc:Agent>
    </dc:creator>
   </cc:Work>
  </rdf:RDF>
 </metadata>
 <defs>
  <style type="text/css">*{stroke-linejoin: round; stroke-linecap: butt}</style>
 </defs>
 <g id="figure_1">
  <g id="patch_1">
   <path d="M 0 204.872727 
L 712.8 204.872727 
L 712.8 0 
L 0 0 
z
" style="fill: #ffffff"/>
  </g>
  <g id="axes_1">
   <g id="patch_2">
    <path d="M 26.247273 59.897455 
L 115.134545 59.897455 
Q 120.213818 59.897455 120.213818 54.818182 
L 120.213818 23.072727 
Q 120.213818 17.993455 115.134545 17.993455 
L 26.247273 17.993455 
Q 21.168 17.993455 21.168 23.072727 
L 21.168 54.818182 
Q 21.168 59.897455 26.247273 59.897455 
z
" clip-path="url(#pb45023113c)" style="fill: #aed6f1; stroke: #000000; stroke-width: 1.2; stroke-linejoin: miter"/>
   </g>
   <g id="patch_3">
    <path d="M 165.927273 63.072 
L 267.512727 63.072 
Q 272.592 63.072 272.592 57.992727 
L 272.592 19.898182 
Q 272.592 14.818909 267.512727 14.818909 
L 165.927273 14.818909 
Q 160.848 14.818909 160.848 19.898182 
L 160.848 57.992727 
Q 160.848 63.072 165.927273 63.072 
z
" clip-path="url(#pb45023113c)" style="fill: #d4e6f1; stroke: #000000; stroke-width: 1.2; stroke-linejoin: miter"/>
   </g>
   <g id="patch_4">
    <path d="M 292.909091 59.897455 
L 457.985455 59.897455 
Q 463.064727 59.897455 463.064727 54.818182 
L 463.064727 23.072727 
Q 463.064727 17.993455 457.985455 17.993455 
L 292.909091 17.993455 
Q 287.829818 17.993455 287.829818 23.072727 
L 287.829818 54.818182 
Q 287.829818 59.897455 292.909091 59.897455 
z
" clip-path="url(#pb45023113c)" style="fill: #d4e6f1; stroke: #000000; stroke-width: 1.2; stroke-linejoin: miter"/>
   </g>
   <g id="patch_5">
    <path d="M 524.650909 59.897455 
L 556.396364 59.897455 
Q 561.475636 59.897455 561.475636 54.818182 
L 561.475636 23.072727 
Q 561.475636 17.993455 556.396364 17.993455 
L 524.650909 17.993455 
Q 519.571636 17.993455 519.571636 23.072727 
L 519.571636 54.818182 
Q 519.571636 59.897455 524.650909 59.897455 
z
" clip-path="url(#pb45023113c)" style="fill: #f9e79f; stroke: #000000; stroke-width: 1.2; stroke-linejoin: miter"/>
   </g>
   <g id="patch_6">
    <path d="M 610.363636 59.897455 
L 673.854545 59.897455 
Q 678.933818 59.897455 678.933818 54.818182 
L 678.933818 23.072727 
Q 678.933818 17.993455 673.854545 17.993455 
L 610.363636 17.993455 
Q 605.284364 17.993455 605.284364 23.072727 
L 605.284364 54.818182 
Q 605.284364 59.897455 610.363636 59.897455 
z
" clip-path="url(#pb45023113c)" style="fill: #a9dfbf; stroke: #000000; stroke-width: 1.2; stroke-linejoin: miter"/>
   </g>
   <g id="patch_7">
    <path d="M 32.596364 155.133818 
L 108.785455 155.133818 
Q 113.864727 155.133818 113.864727 150.054545 
L 113.864727 118.309091 
Q 113.864727 113.229818 108.785455 113.229818 
L 32.596364 113.229818 
Q 27.517091 113.229818 27.517091 118.309091 
L 27.517091 150.054545 
Q 27.517091 155.133818 32.596364 155.133818 
z
" clip-path="url(#pb45023113c)" style="fill: #aed6f1; stroke: #000000; stroke-width: 1.2; stroke-linejoin: miter"/>
   </g>
   <g id="text_1">
    <!-- fk, Ak, φk -->
    <g transform="translate(46.201768 41.428892) scale(0.09 -0.09)">
     <defs>
      <path id="DejaVuSans-Bold-66" d="M 2841 4863 
L 2841 4128 
L 2222 4128 
Q 1984 4128 1890 4042 
Q 1797 3956 1797 3744 
L 1797 3500 
L 2753 3500 
L 2753 2700 
L 1797 2700 
L 1797 0 
L 678 0 
L 678 2700 
L 122 2700 
L 122 3500 
L 678 3500 
L 678 3744 
Q 678 4316 997 4589 
Q 1316 4863 1984 4863 
L 2841 4863 
z
" transform="scale(0.015625)"/>
      <path id="DejaVuSans-Bold-6b" d="M 538 4863 
L 1656 4863 
L 1656 2216 
L 2944 3500 
L 4244 3500 
L 2534 1894 
L 4378 0 
L 3022 0 
L 1656 1459 
L 1656 0 
L 538 0 
L 538 4863 
z
" transform="scale(0.015625)"/>
      <path id="DejaVuSans-Bold-2c" d="M 653 1209 
L 1778 1209 
L 1778 256 
L 1006 -909 
L 341 -909 
L 653 256 
L 653 1209 
z
" transform="scale(0.015625)"/>
      <path id="DejaVuSans-Bold-20" transform="scale(0.015625)"/>
      <path id="DejaVuSans-Bold-41" d="M 3419 850 
L 1538 850 
L 1241 0 
L 31 0 
L 1759 4666 
L 3194 4666 
L 4922 0 
L 3713 0 
L 3419 850 
z
M 1838 1716 
L 3116 1716 
L 2478 3572 
L 1838 1716 
z
" transform="scale(0.015625)"/>
      <path id="DejaVuSans-Bold-3c6" d="M 3216 3531 
Q 3688 3531 4125 3131 
Q 4638 2666 4638 1747 
Q 4638 200 3081 0 
L 3081 -1331 
L 1969 -1331 
L 1969 0 
Q 413 200 413 1747 
Q 413 2609 925 3097 
Q 1347 3500 1872 3500 
L 1872 2784 
Q 1800 2778 1667 2514 
Q 1534 2250 1534 1859 
Q 1534 1113 1969 800 
L 1969 2025 
Q 1969 3531 3216 3531 
z
M 3250 2700 
Q 3081 2681 3081 2025 
L 3081 800 
Q 3500 1103 3516 1859 
Q 3525 2278 3447 2495 
Q 3369 2713 3250 2700 
z
" transform="scale(0.015625)"/>
     </defs>
     <use xlink:href="#DejaVuSans-Bold-66"/>
     <use xlink:href="#DejaVuSans-Bold-6b" transform="translate(43.505859 0)"/>
     <use xlink:href="#DejaVuSans-Bold-2c" transform="translate(110.009766 0)"/>
     <use xlink:href="#DejaVuSans-Bold-20" transform="translate(147.998047 0)"/>
     <use xlink:href="#DejaVuSans-Bold-41" transform="translate(182.8125 0)"/>
     <use xlink:href="#DejaVuSans-Bold-6b" transform="translate(260.205078 0)"/>
     <use xlink:href="#DejaVuSans-Bold-2c" transform="translate(326.708984 0)"/>
     <use xlink:href="#DejaVuSans-Bold-20" transform="translate(364.697266 0)"/>
     <use xlink:href="#DejaVuSans-Bold-3c6" transform="translate(399.511719 0)"/>
     <use xlink:href="#DejaVuSans-Bold-6b" transform="translate(477.734375 0)"/>
    </g>
   </g>
   <g id="patch_8">
    <path d="M 117.138787 38.945455 
Q 134.186081 38.945455 149.891734 38.945455 
" style="fill: none; stroke: #000000; stroke-width: 1.2; stroke-linecap: round"/>
    <path d="M 145.891734 36.945455 
L 149.891734 38.945455 
L 145.891734 40.945455 
z
" style="stroke: #000000; stroke-width: 1.2; stroke-linecap: round"/>
   </g>
   <g id="text_2">
    <!-- Décalage -->
    <g transform="translate(193.374844 36.31872) scale(0.09 -0.09)">
     <defs>
      <path id="DejaVuSans-Bold-44" d="M 1791 3756 
L 1791 909 
L 2222 909 
Q 2959 909 3348 1275 
Q 3738 1641 3738 2338 
Q 3738 3031 3350 3393 
Q 2963 3756 2222 3756 
L 1791 3756 
z
M 588 4666 
L 1856 4666 
Q 2919 4666 3439 4514 
Q 3959 4363 4331 4000 
Q 4659 3684 4818 3271 
Q 4978 2859 4978 2338 
Q 4978 1809 4818 1395 
Q 4659 981 4331 666 
Q 3956 303 3431 151 
Q 2906 0 1856 0 
L 588 0 
L 588 4666 
z
" transform="scale(0.015625)"/>
      <path id="DejaVuSans-Bold-e9" d="M 4031 1759 
L 4031 1441 
L 1416 1441 
Q 1456 1047 1700 850 
Q 1944 653 2381 653 
Q 2734 653 3104 758 
Q 3475 863 3866 1075 
L 3866 213 
Q 3469 63 3072 -14 
Q 2675 -91 2278 -91 
Q 1328 -91 801 392 
Q 275 875 275 1747 
Q 275 2603 792 3093 
Q 1309 3584 2216 3584 
Q 3041 3584 3536 3087 
Q 4031 2591 4031 1759 
z
M 2881 2131 
Q 2881 2450 2695 2645 
Q 2509 2841 2209 2841 
Q 1884 2841 1681 2658 
Q 1478 2475 1428 2131 
L 2881 2131 
z
M 2702 5119 
L 3586 5119 
L 2433 3944 
L 1821 3944 
L 2702 5119 
z
" transform="scale(0.015625)"/>
      <path id="DejaVuSans-Bold-63" d="M 3366 3391 
L 3366 2478 
Q 3138 2634 2908 2709 
Q 2678 2784 2431 2784 
Q 1963 2784 1702 2511 
Q 1441 2238 1441 1747 
Q 1441 1256 1702 982 
Q 1963 709 2431 709 
Q 2694 709 2930 787 
Q 3166 866 3366 1019 
L 3366 103 
Q 3103 6 2833 -42 
Q 2563 -91 2291 -91 
Q 1344 -91 809 395 
Q 275 881 275 1747 
Q 275 2613 809 3098 
Q 1344 3584 2291 3584 
Q 2566 3584 2833 3536 
Q 3100 3488 3366 3391 
z
" transform="scale(0.015625)"/>
      <path id="DejaVuSans-Bold-61" d="M 2106 1575 
Q 1756 1575 1579 1456 
Q 1403 1338 1403 1106 
Q 1403 894 1545 773 
Q 1688 653 1941 653 
Q 2256 653 2472 879 
Q 2688 1106 2688 1447 
L 2688 1575 
L 2106 1575 
z
M 3816 1997 
L 3816 0 
L 2688 0 
L 2688 519 
Q 2463 200 2181 54 
Q 1900 -91 1497 -91 
Q 953 -91 614 226 
Q 275 544 275 1050 
Q 275 1666 698 1953 
Q 1122 2241 2028 2241 
L 2688 2241 
L 2688 2328 
Q 2688 2594 2478 2717 
Q 2269 2841 1825 2841 
Q 1466 2841 1156 2769 
Q 847 2697 581 2553 
L 581 3406 
Q 941 3494 1303 3539 
Q 1666 3584 2028 3584 
Q 2975 3584 3395 3211 
Q 3816 2838 3816 1997 
z
" transform="scale(0.015625)"/>
      <path id="DejaVuSans-Bold-6c" d="M 538 4863 
L 1656 4863 
L 1656 0 
L 538 0 
L 538 4863 
z
" transform="scale(0.015625)"/>
      <path id="DejaVuSans-Bold-67" d="M 2919 594 
Q 2688 288 2409 144 
Q 2131 0 1766 0 
Q 1125 0 706 504 
Q 288 1009 288 1791 
Q 288 2575 706 3076 
Q 1125 3578 1766 3578 
Q 2131 3578 2409 3434 
Q 2688 3291 2919 2981 
L 2919 3500 
L 4044 3500 
L 4044 353 
Q 4044 -491 3511 -936 
Q 2978 -1381 1966 -1381 
Q 1638 -1381 1331 -1331 
Q 1025 -1281 716 -1178 
L 716 -306 
Q 1009 -475 1290 -558 
Q 1572 -641 1856 -641 
Q 2406 -641 2662 -400 
Q 2919 -159 2919 353 
L 2919 594 
z
M 2181 2772 
Q 1834 2772 1640 2515 
Q 1447 2259 1447 1791 
Q 1447 1309 1634 1061 
Q 1822 813 2181 813 
Q 2531 813 2725 1069 
Q 2919 1325 2919 1791 
Q 2919 2259 2725 2515 
Q 2531 2772 2181 2772 
z
" transform="scale(0.015625)"/>
      <path id="DejaVuSans-Bold-65" d="M 4031 1759 
L 4031 1441 
L 1416 1441 
Q 1456 1047 1700 850 
Q 1944 653 2381 653 
Q 2734 653 3104 758 
Q 3475 863 3866 1075 
L 3866 213 
Q 3469 63 3072 -14 
Q 2675 -91 2278 -91 
Q 1328 -91 801 392 
Q 275 875 275 1747 
Q 275 2603 792 3093 
Q 1309 3584 2216 3584 
Q 3041 3584 3536 3087 
Q 4031 2591 4031 1759 
z
M 2881 2131 
Q 2881 2450 2695 2645 
Q 2509 2841 2209 2841 
Q 1884 2841 1681 2658 
Q 1478 2475 1428 2131 
L 2881 2131 
z
" transform="scale(0.015625)"/>
     </defs>
     <use xlink:href="#DejaVuSans-Bold-44"/>
     <use xlink:href="#DejaVuSans-Bold-e9" transform="translate(83.007812 0)"/>
     <use xlink:href="#DejaVuSans-Bold-63" transform="translate(150.830078 0)"/>
     <use xlink:href="#DejaVuSans-Bold-61" transform="translate(210.107422 0)"/>
     <use xlink:href="#DejaVuSans-Bold-6c" transform="translate(277.587891 0)"/>
     <use xlink:href="#DejaVuSans-Bold-61" transform="translate(311.865234 0)"/>
     <use xlink:href="#DejaVuSans-Bold-67" transform="translate(379.345703 0)"/>
     <use xlink:href="#DejaVuSans-Bold-65" transform="translate(450.927734 0)"/>
    </g>
    <!-- fréquentiel -->
    <g transform="translate(188.522578 46.899064) scale(0.09 -0.09)">
     <defs>
      <path id="DejaVuSans-Bold-72" d="M 3138 2547 
Q 2991 2616 2845 2648 
Q 2700 2681 2553 2681 
Q 2122 2681 1889 2404 
Q 1656 2128 1656 1613 
L 1656 0 
L 538 0 
L 538 3500 
L 1656 3500 
L 1656 2925 
Q 1872 3269 2151 3426 
Q 2431 3584 2822 3584 
Q 2878 3584 2943 3579 
Q 3009 3575 3134 3559 
L 3138 2547 
z
" transform="scale(0.015625)"/>
      <path id="DejaVuSans-Bold-71" d="M 2181 2772 
Q 1825 2772 1636 2509 
Q 1447 2247 1447 1747 
Q 1447 1247 1636 984 
Q 1825 722 2181 722 
Q 2541 722 2730 984 
Q 2919 1247 2919 1747 
Q 2919 2247 2730 2509 
Q 2541 2772 2181 2772 
z
M 2919 506 
Q 2688 197 2409 53 
Q 2131 -91 1766 -91 
Q 1119 -91 703 423 
Q 288 938 288 1747 
Q 288 2556 703 3067 
Q 1119 3578 1766 3578 
Q 2131 3578 2409 3434 
Q 2688 3291 2919 2981 
L 2919 3500 
L 4044 3500 
L 4044 -1331 
L 2919 -1331 
L 2919 506 
z
" transform="scale(0.015625)"/>
      <path id="DejaVuSans-Bold-75" d="M 500 1363 
L 500 3500 
L 1625 3500 
L 1625 3150 
Q 1625 2866 1622 2436 
Q 1619 2006 1619 1863 
Q 1619 1441 1641 1255 
Q 1663 1069 1716 984 
Q 1784 875 1895 815 
Q 2006 756 2150 756 
Q 2500 756 2700 1025 
Q 2900 1294 2900 1772 
L 2900 3500 
L 4019 3500 
L 4019 0 
L 2900 0 
L 2900 506 
Q 2647 200 2364 54 
Q 2081 -91 1741 -91 
Q 1134 -91 817 281 
Q 500 653 500 1363 
z
" transform="scale(0.015625)"/>
      <path id="DejaVuSans-Bold-6e" d="M 4056 2131 
L 4056 0 
L 2931 0 
L 2931 347 
L 2931 1631 
Q 2931 2084 2911 2256 
Q 2891 2428 2841 2509 
Q 2775 2619 2662 2680 
Q 2550 2741 2406 2741 
Q 2056 2741 1856 2470 
Q 1656 2200 1656 1722 
L 1656 0 
L 538 0 
L 538 3500 
L 1656 3500 
L 1656 2988 
Q 1909 3294 2193 3439 
Q 2478 3584 2822 3584 
Q 3428 3584 3742 3212 
Q 4056 2841 4056 2131 
z
" transform="scale(0.015625)"/>
      <path id="DejaVuSans-Bold-74" d="M 1759 4494 
L 1759 3500 
L 2913 3500 
L 2913 2700 
L 1759 2700 
L 1759 1216 
Q 1759 972 1856 886 
Q 1953 800 2241 800 
L 2816 800 
L 2816 0 
L 1856 0 
Q 1194 0 917 276 
Q 641 553 641 1216 
L 641 2700 
L 84 2700 
L 84 3500 
L 641 3500 
L 641 4494 
L 1759 4494 
z
" transform="scale(0.015625)"/>
      <path id="DejaVuSans-Bold-69" d="M 538 3500 
L 1656 3500 
L 1656 0 
L 538 0 
L 538 3500 
z
M 538 4863 
L 1656 4863 
L 1656 3950 
L 538 3950 
L 538 4863 
z
" transform="scale(0.015625)"/>
     </defs>
     <use xlink:href="#DejaVuSans-Bold-66"/>
     <use xlink:href="#DejaVuSans-Bold-72" transform="translate(43.505859 0)"/>
     <use xlink:href="#DejaVuSans-Bold-e9" transform="translate(92.822266 0)"/>
     <use xlink:href="#DejaVuSans-Bold-71" transform="translate(160.644531 0)"/>
     <use xlink:href="#DejaVuSans-Bold-75" transform="translate(232.226562 0)"/>
     <use xlink:href="#DejaVuSans-Bold-65" transform="translate(303.417969 0)"/>
     <use xlink:href="#DejaVuSans-Bold-6e" transform="translate(371.240234 0)"/>
     <use xlink:href="#DejaVuSans-Bold-74" transform="translate(442.431641 0)"/>
     <use xlink:href="#DejaVuSans-Bold-69" transform="translate(490.234375 0)"/>
     <use xlink:href="#DejaVuSans-Bold-65" transform="translate(524.511719 0)"/>
     <use xlink:href="#DejaVuSans-Bold-6c" transform="translate(592.333984 0)"/>
    </g>
   </g>
   <g id="patch_9">
    <path d="M 269.516969 38.945455 
Q 286.564263 38.945455 302.269916 38.945455 
" style="fill: none; stroke: #000000; stroke-width: 1.2; stroke-linecap: round"/>
    <path d="M 298.269916 36.945455 
L 302.269916 38.945455 
L 298.269916 40.945455 
z
" style="stroke: #000000; stroke-width: 1.2; stroke-linecap: round"/>
   </g>
   <g id="text_3">
    <!-- f'k -->
    <g transform="translate(281.73625 31.629318) scale(0.08 -0.08)">
     <defs>
      <path id="DejaVuSans-Oblique-66" d="M 3059 4863 
L 2969 4384 
L 2419 4384 
Q 2106 4384 1964 4261 
Q 1822 4138 1753 3809 
L 1691 3500 
L 2638 3500 
L 2553 3053 
L 1606 3053 
L 1013 0 
L 434 0 
L 1031 3053 
L 481 3053 
L 563 3500 
L 1113 3500 
L 1159 3744 
Q 1278 4363 1576 4613 
Q 1875 4863 2516 4863 
L 3059 4863 
z
" transform="scale(0.015625)"/>
      <path id="DejaVuSans-Oblique-27" d="M 1147 4666 
L 1147 2931 
L 616 2931 
L 616 4666 
L 1147 4666 
z
" transform="scale(0.015625)"/>
      <path id="DejaVuSans-Oblique-6b" d="M 1172 4863 
L 1747 4863 
L 1197 2028 
L 3169 3500 
L 3916 3500 
L 1716 1825 
L 3322 0 
L 2625 0 
L 1131 1709 
L 800 0 
L 225 0 
L 1172 4863 
z
" transform="scale(0.015625)"/>
     </defs>
     <use xlink:href="#DejaVuSans-Oblique-66"/>
     <use xlink:href="#DejaVuSans-Oblique-27" transform="translate(35.205078 0)"/>
     <use xlink:href="#DejaVuSans-Oblique-6b" transform="translate(62.695312 0)"/>
    </g>
   </g>
   <g id="text_4">
    <!-- Σ Ak cos(2πf'k n/Fe + φk) -->
    <g transform="translate(311.419304 41.428892) scale(0.09 -0.09)">
     <defs>
      <path id="DejaVuSans-Bold-3a3" d="M 1684 909 
L 3903 909 
L 3903 0 
L 588 0 
L 588 1003 
L 2075 2481 
L 588 3703 
L 588 4666 
L 3834 4666 
L 3834 3756 
L 1738 3756 
L 3278 2494 
L 1684 909 
z
" transform="scale(0.015625)"/>
      <path id="DejaVuSans-Bold-6f" d="M 2203 2784 
Q 1831 2784 1636 2517 
Q 1441 2250 1441 1747 
Q 1441 1244 1636 976 
Q 1831 709 2203 709 
Q 2569 709 2762 976 
Q 2956 1244 2956 1747 
Q 2956 2250 2762 2517 
Q 2569 2784 2203 2784 
z
M 2203 3584 
Q 3106 3584 3614 3096 
Q 4122 2609 4122 1747 
Q 4122 884 3614 396 
Q 3106 -91 2203 -91 
Q 1297 -91 786 396 
Q 275 884 275 1747 
Q 275 2609 786 3096 
Q 1297 3584 2203 3584 
z
" transform="scale(0.015625)"/>
      <path id="DejaVuSans-Bold-73" d="M 3272 3391 
L 3272 2541 
Q 2913 2691 2578 2766 
Q 2244 2841 1947 2841 
Q 1628 2841 1473 2761 
Q 1319 2681 1319 2516 
Q 1319 2381 1436 2309 
Q 1553 2238 1856 2203 
L 2053 2175 
Q 2913 2066 3209 1816 
Q 3506 1566 3506 1031 
Q 3506 472 3093 190 
Q 2681 -91 1863 -91 
Q 1516 -91 1145 -36 
Q 775 19 384 128 
L 384 978 
Q 719 816 1070 734 
Q 1422 653 1784 653 
Q 2113 653 2278 743 
Q 2444 834 2444 1013 
Q 2444 1163 2330 1236 
Q 2216 1309 1875 1350 
L 1678 1375 
Q 931 1469 631 1722 
Q 331 1975 331 2491 
Q 331 3047 712 3315 
Q 1094 3584 1881 3584 
Q 2191 3584 2531 3537 
Q 2872 3491 3272 3391 
z
" transform="scale(0.015625)"/>
      <path id="DejaVuSans-Bold-28" d="M 2413 -844 
L 1484 -844 
Q 1006 -72 778 623 
Q 550 1319 550 2003 
Q 550 2688 779 3389 
Q 1009 4091 1484 4856 
L 2413 4856 
Q 2013 4116 1813 3408 
Q 1613 2700 1613 2009 
Q 1613 1319 1811 609 
Q 2009 -100 2413 -844 
z
" transform="scale(0.015625)"/>
      <path id="DejaVuSans-Bold-32" d="M 1844 884 
L 3897 884 
L 3897 0 
L 506 0 
L 506 884 
L 2209 2388 
Q 2438 2594 2547 2791 
Q 2656 2988 2656 3200 
Q 2656 3528 2436 3728 
Q 2216 3928 1850 3928 
Q 1569 3928 1234 3808 
Q 900 3688 519 3450 
L 519 4475 
Q 925 4609 1322 4679 
Q 1719 4750 2100 4750 
Q 2938 4750 3402 4381 
Q 3866 4013 3866 3353 
Q 3866 2972 3669 2642 
Q 3472 2313 2841 1759 
L 1844 884 
z
" transform="scale(0.015625)"/>
      <path id="DejaVuSans-Bold-3c0" d="M 269 3500 
L 4684 3500 
L 4684 2700 
L 4072 2700 
L 4072 1131 
Q 4072 728 4148 629 
Q 4225 531 4400 531 
Q 4578 531 4678 544 
L 4678 -44 
Q 4484 -122 3822 -122 
Q 3613 -122 3409 -63 
Q 3084 34 2994 319 
Q 2953 453 2953 728 
L 2953 2700 
L 2000 2700 
L 2000 0 
L 881 0 
L 881 2700 
L 269 2700 
L 269 3500 
z
" transform="scale(0.015625)"/>
      <path id="DejaVuSans-Bold-27" d="M 1350 4666 
L 1350 2931 
L 609 2931 
L 609 4666 
L 1350 4666 
z
" transform="scale(0.015625)"/>
      <path id="DejaVuSans-Bold-2f" d="M 1644 4666 
L 2338 4666 
L 691 -594 
L 0 -594 
L 1644 4666 
z
" transform="scale(0.015625)"/>
      <path id="DejaVuSans-Bold-46" d="M 588 4666 
L 3834 4666 
L 3834 3756 
L 1791 3756 
L 1791 2888 
L 3713 2888 
L 3713 1978 
L 1791 1978 
L 1791 0 
L 588 0 
L 588 4666 
z
" transform="scale(0.015625)"/>
      <path id="DejaVuSans-Bold-2b" d="M 3053 4013 
L 3053 2375 
L 4684 2375 
L 4684 1638 
L 3053 1638 
L 3053 0 
L 2309 0 
L 2309 1638 
L 678 1638 
L 678 2375 
L 2309 2375 
L 2309 4013 
L 3053 4013 
z
" transform="scale(0.015625)"/>
      <path id="DejaVuSans-Bold-29" d="M 513 -844 
Q 913 -100 1113 609 
Q 1313 1319 1313 2009 
Q 1313 2700 1113 3408 
Q 913 4116 513 4856 
L 1441 4856 
Q 1916 4091 2145 3389 
Q 2375 2688 2375 2003 
Q 2375 1319 2147 623 
Q 1919 -72 1441 -844 
L 513 -844 
z
" transform="scale(0.015625)"/>
     </defs>
     <use xlink:href="#DejaVuSans-Bold-3a3"/>
     <use xlink:href="#DejaVuSans-Bold-20" transform="translate(68.310547 0)"/>
     <use xlink:href="#DejaVuSans-Bold-41" transform="translate(103.125 0)"/>
     <use xlink:href="#DejaVuSans-Bold-6b" transform="translate(180.517578 0)"/>
     <use xlink:href="#DejaVuSans-Bold-20" transform="translate(247.021484 0)"/>
     <use xlink:href="#DejaVuSans-Bold-63" transform="translate(281.835938 0)"/>
     <use xlink:href="#DejaVuSans-Bold-6f" transform="translate(341.113281 0)"/>
     <use xlink:href="#DejaVuSans-Bold-73" transform="translate(409.814453 0)"/>
     <use xlink:href="#DejaVuSans-Bold-28" transform="translate(469.335938 0)"/>
     <use xlink:href="#DejaVuSans-Bold-32" transform="translate(515.039062 0)"/>
     <use xlink:href="#DejaVuSans-Bold-3c0" transform="translate(584.619141 0)"/>
     <use xlink:href="#DejaVuSans-Bold-66" transform="translate(663.720703 0)"/>
     <use xlink:href="#DejaVuSans-Bold-27" transform="translate(707.226562 0)"/>
     <use xlink:href="#DejaVuSans-Bold-6b" transform="translate(737.841797 0)"/>
     <use xlink:href="#DejaVuSans-Bold-20" transform="translate(804.345703 0)"/>
     <use xlink:href="#DejaVuSans-Bold-6e" transform="translate(839.160156 0)"/>
     <use xlink:href="#DejaVuSans-Bold-2f" transform="translate(910.351562 0)"/>
     <use xlink:href="#DejaVuSans-Bold-46" transform="translate(946.875 0)"/>
     <use xlink:href="#DejaVuSans-Bold-65" transform="translate(1011.185547 0)"/>
     <use xlink:href="#DejaVuSans-Bold-20" transform="translate(1079.007812 0)"/>
     <use xlink:href="#DejaVuSans-Bold-2b" transform="translate(1113.822266 0)"/>
     <use xlink:href="#DejaVuSans-Bold-20" transform="translate(1197.611328 0)"/>
     <use xlink:href="#DejaVuSans-Bold-3c6" transform="translate(1232.425781 0)"/>
     <use xlink:href="#DejaVuSans-Bold-6b" transform="translate(1310.648438 0)"/>
     <use xlink:href="#DejaVuSans-Bold-29" transform="translate(1377.152344 0)"/>
    </g>
   </g>
   <g id="patch_10">
    <path d="M 459.989696 38.945455 
Q 477.03699 38.945455 492.742643 38.945455 
" style="fill: none; stroke: #000000; stroke-width: 1.2; stroke-linecap: round"/>
    <path d="M 488.742643 36.945455 
L 492.742643 38.945455 
L 488.742643 40.945455 
z
" style="stroke: #000000; stroke-width: 1.2; stroke-linecap: round"/>
   </g>
   <g id="text_5">
    <!-- × -->
    <g transform="translate(536.752777 41.428892) scale(0.09 -0.09)">
     <defs>
      <path id="DejaVuSans-Bold-d7" d="M 4563 3359 
L 3206 2003 
L 4563 653 
L 4038 128 
L 2681 1478 
L 1325 128 
L 800 653 
L 2156 2003 
L 800 3359 
L 1325 3884 
L 2681 2528 
L 4038 3884 
L 4563 3359 
z
" transform="scale(0.015625)"/>
     </defs>
     <use xlink:href="#DejaVuSans-Bold-d7"/>
    </g>
   </g>
   <g id="patch_11">
    <path d="M 558.395568 38.945455 
Q 573.857331 38.945455 587.977453 38.945455 
" style="fill: none; stroke: #000000; stroke-width: 1.2; stroke-linecap: round"/>
    <path d="M 583.977453 36.945455 
L 587.977453 38.945455 
L 583.977453 40.945455 
z
" style="stroke: #000000; stroke-width: 1.2; stroke-linecap: round"/>
   </g>
   <g id="text_6">
    <!-- y(n) -->
    <g transform="translate(631.858935 41.388814) scale(0.09 -0.09)">
     <defs>
      <path id="DejaVuSans-Bold-79" d="M 78 3500 
L 1197 3500 
L 2138 1125 
L 2938 3500 
L 4056 3500 
L 2584 -331 
Q 2363 -916 2067 -1148 
Q 1772 -1381 1288 -1381 
L 641 -1381 
L 641 -647 
L 991 -647 
Q 1275 -647 1404 -556 
Q 1534 -466 1606 -231 
L 1638 -134 
L 78 3500 
z
" transform="scale(0.015625)"/>
     </defs>
     <use xlink:href="#DejaVuSans-Bold-79"/>
     <use xlink:href="#DejaVuSans-Bold-28" transform="translate(65.185547 0)"/>
     <use xlink:href="#DejaVuSans-Bold-6e" transform="translate(110.888672 0)"/>
     <use xlink:href="#DejaVuSans-Bold-29" transform="translate(182.080078 0)"/>
    </g>
   </g>
   <g id="text_7">
    <!-- env(n) -->
    <g transform="translate(54.18505 136.665256) scale(0.09 -0.09)">
     <defs>
      <path id="DejaVuSans-Bold-76" d="M 97 3500 
L 1216 3500 
L 2088 1081 
L 2956 3500 
L 4078 3500 
L 2700 0 
L 1472 0 
L 97 3500 
z
" transform="scale(0.015625)"/>
     </defs>
     <use xlink:href="#DejaVuSans-Bold-65"/>
     <use xlink:href="#DejaVuSans-Bold-6e" transform="translate(67.822266 0)"/>
     <use xlink:href="#DejaVuSans-Bold-76" transform="translate(139.013672 0)"/>
     <use xlink:href="#DejaVuSans-Bold-28" transform="translate(204.199219 0)"/>
     <use xlink:href="#DejaVuSans-Bold-6e" transform="translate(249.902344 0)"/>
     <use xlink:href="#DejaVuSans-Bold-29" transform="translate(321.09375 0)"/>
    </g>
   </g>
   <g id="patch_12">
    <path d="M 110.784852 134.181818 
Q 324.652618 134.181818 537.178742 134.181818 
" style="fill: none; stroke: #000000; stroke-width: 1.2; stroke-linecap: round"/>
    <path d="M 533.178742 132.181818 
L 537.178742 134.181818 
L 533.178742 136.181818 
z
" style="stroke: #000000; stroke-width: 1.2; stroke-linecap: round"/>
   </g>
   <g id="patch_13">
    <path d="M 540.523636 132.181258 
Q 540.523636 94.498395 540.523636 58.157173 
" style="fill: none; stroke: #000000; stroke-width: 1.2; stroke-linecap: round"/>
    <path d="M 538.523636 62.157173 
L 540.523636 58.157173 
L 542.523636 62.157173 
z
" style="stroke: #000000; stroke-width: 1.2; stroke-linecap: round"/>
   </g>
  </g>
 </g>
 <defs>
  <clipPath id="pb45023113c">
   <rect x="7.2" y="7.2" width="698.4" height="190.472727"/>
  </clipPath>
 </defs>
</svg>
